<svg xmlns="http://www.w3.org/2000/svg" width="20" height="20" viewBox="0 0 20 20" fill="none">
  <path fill-rule="evenodd" clip-rule="evenodd" d="M13.0891 10.6095C13.2454 10.4533 13.3331 10.2413 13.3331 10.0204C13.3331 9.79939 13.2454 9.58746 13.0891 9.43119L8.37497 4.71702C8.2981 4.63743 8.20614 4.57395 8.10447 4.53027C8.0028 4.4866 7.89345 4.46361 7.7828 4.46265C7.67216 4.46169 7.56242 4.48277 7.46001 4.52467C7.3576 4.56657 7.26455 4.62845 7.18631 4.7067C7.10806 4.78494 7.04619 4.87798 7.00429 4.9804C6.96238 5.08281 6.9413 5.19254 6.94226 5.30319C6.94322 5.41384 6.96621 5.52319 7.00989 5.62486C7.05356 5.72653 7.11705 5.81849 7.19664 5.89536L11.3216 10.0204L7.19664 14.1454C7.04484 14.3025 6.96084 14.513 6.96274 14.7315C6.96464 14.95 7.05228 15.159 7.20679 15.3135C7.36129 15.468 7.57031 15.5557 7.7888 15.5576C8.0073 15.5595 8.2178 15.4755 8.37497 15.3237L13.0891 10.6095Z" fill="white"/>
</svg>