<svg xmlns="http://www.w3.org/2000/svg" width="98" height="18" viewBox="0 0 98 18" fill="none">
  <g clip-path="url(#clip0_0_1606)">
    <path d="M8.82863 0C9.65545 0 10.4187 0.064238 11.1183 0.254408C11.8179 0.381612 12.3903 0.63602 12.8992 0.95403C13.408 1.27204 13.7896 1.71725 14.044 2.29031C14.2984 2.86209 14.4256 3.56235 14.4256 4.32557C14.4256 5.21536 14.2348 5.97922 13.7896 6.55164C13.408 7.12342 12.7719 7.63224 12.0087 8.01385C13.09 8.33186 13.9168 8.90364 14.4256 9.6675C14.9344 10.4307 15.2524 11.3848 15.2524 12.466C15.2524 13.3558 15.0616 14.1196 14.7436 14.7557C14.4256 15.3917 13.9168 15.9641 13.3444 16.3457C12.7719 16.728 12.0723 17.046 11.3091 17.2361C10.5459 17.4263 9.78266 17.5541 9.01943 17.5541H0.496765V0H8.82863ZM8.31981 7.12342C9.01943 7.12342 9.59185 6.93262 10.0371 6.61461C10.4823 6.2966 10.6731 5.72418 10.6731 5.02456C10.6731 4.64295 10.6095 4.26133 10.4823 4.00693C10.3551 3.75252 10.1643 3.56171 9.90986 3.37091C9.65545 3.2437 9.40104 3.1165 9.08303 3.0529C8.76502 2.98929 8.44701 2.98929 8.0654 2.98929H4.37649V7.12342H8.31981ZM8.51062 14.6285C8.89223 14.6285 9.27384 14.5649 9.59185 14.5019C9.90986 14.4377 10.2279 14.3104 10.4823 14.1196C10.7367 13.9288 10.9275 13.738 11.1183 13.42C11.2455 13.102 11.3727 12.7198 11.3727 12.2752C11.3727 11.3848 11.1183 10.7487 10.6095 10.3029C10.1007 9.92127 9.40104 9.7311 8.57422 9.7311H4.37649V14.6285H8.51062ZM20.7858 14.5649C21.2946 15.0737 22.0578 15.3281 23.0755 15.3281C23.7751 15.3281 24.4111 15.1373 24.9199 14.8193C25.4287 14.437 25.7468 14.056 25.874 13.6738H28.9905C28.4816 15.2002 27.7184 16.2821 26.7008 16.9811C25.6832 17.6171 24.4747 17.9994 23.0119 17.9994C21.9942 17.9994 21.1038 17.8079 20.277 17.4899C19.4502 17.1719 18.8141 16.7273 18.2417 16.0913C17.6693 15.5189 17.2241 14.8193 16.9697 13.9918C16.6517 13.165 16.5245 12.2752 16.5245 11.2569C16.5245 10.3029 16.6517 9.41309 16.9697 8.58563C17.2877 7.75881 17.7329 7.05982 18.3053 6.4238C18.8777 5.85138 19.5774 5.34257 20.3406 5.02456C21.1674 4.70655 21.9942 4.51574 23.0119 4.51574C24.0931 4.51574 25.0471 4.70655 25.874 5.15176C26.7008 5.59698 27.3368 6.10579 27.8456 6.86901C28.3544 7.56864 28.736 8.39483 28.9905 9.28589C29.1177 10.1763 29.1813 11.0667 29.1177 12.0844H19.8954C19.8954 13.102 20.277 14.056 20.7858 14.5649ZM24.7927 7.88665C24.3475 7.44143 23.6479 7.18702 22.8211 7.18702C22.2486 7.18702 21.8034 7.31359 21.4218 7.50503C21.0402 7.69584 20.7858 7.94961 20.5314 8.20466C20.277 8.4597 20.1498 8.77707 20.0862 9.09508C20.0226 9.41309 19.959 9.66687 19.959 9.92191H25.6832C25.5559 8.96788 25.2379 8.33186 24.7927 7.88665ZM34.0786 0V6.61461H34.1422C34.5874 5.85138 35.1598 5.34257 35.8595 5.02456C36.5591 4.70655 37.1951 4.51574 37.8947 4.51574C38.8488 4.51574 39.612 4.64294 40.1844 4.89735C40.7568 5.15176 41.2656 5.53337 41.5836 5.97859C41.9017 6.4238 42.1561 6.99622 42.2833 7.63224C42.4105 8.26826 42.4741 8.96852 42.4741 9.79471V17.6178H38.976V10.4307C38.976 9.34949 38.7852 8.58627 38.4672 8.07745C38.1491 7.56864 37.5767 7.31423 36.7499 7.31423C35.7959 7.31423 35.0962 7.63224 34.7146 8.14169C34.2694 8.71347 34.0786 9.6675 34.0786 10.9395V17.6178H30.5805V0H34.0786ZM45.0182 6.74181C45.3998 6.16939 45.845 5.78778 46.4174 5.40553C46.9898 5.08752 47.6258 4.83375 48.3255 4.70591C49.0251 4.57871 49.7241 4.51511 50.4243 4.51511C51.0603 4.51511 51.6964 4.57871 52.3966 4.64231C53.0326 4.70591 53.6687 4.89608 54.1768 5.15112C54.7493 5.4049 55.1309 5.78714 55.5131 6.23236C55.8305 6.67821 56.0213 7.31423 56.0213 8.07745V14.7557C56.0213 15.3281 56.0849 15.9005 56.1485 16.41C56.2127 16.9188 56.4023 17.364 56.5937 17.6178H53.032C52.9042 17.4905 52.8406 17.2361 52.7776 17.046C52.714 16.8545 52.714 16.6008 52.714 16.41C52.1416 16.9817 51.5056 17.364 50.7423 17.6178C49.9791 17.8722 49.2159 17.9358 48.4527 17.9358C47.8166 17.9358 47.3078 17.8722 46.7354 17.682C46.2266 17.5548 45.7814 17.2997 45.3362 16.9817C44.9546 16.6637 44.6365 16.2821 44.3821 15.7739C44.1913 15.2645 44.0641 14.7557 44.0641 14.056C44.0641 13.3558 44.1913 12.7198 44.4457 12.2752C44.7001 11.83 45.0182 11.4484 45.3998 11.1303C45.7814 10.8766 46.2902 10.6215 46.799 10.4943C47.3078 10.3678 47.8166 10.2406 48.3891 10.1763L49.9155 9.98551C50.4243 9.92191 50.8695 9.85831 51.2512 9.79471C51.6328 9.6675 51.9508 9.5403 52.2052 9.34949C52.4596 9.15869 52.5232 8.90428 52.5232 8.52267C52.5232 8.14105 52.4596 7.82304 52.3324 7.63224C52.2052 7.44143 52.0144 7.25063 51.8236 7.12342C51.6321 6.99622 51.3784 6.93262 51.1239 6.86965C50.8695 6.80541 50.5515 6.80541 50.2335 6.80541C49.5339 6.80541 49.0251 6.93262 48.6435 7.25063C48.2619 7.56864 48.0075 8.07745 47.9438 8.71347H44.4457C44.4457 7.95025 44.7001 7.25063 45.0182 6.74181ZM51.9501 11.7028C51.76 11.7664 51.5056 11.83 51.2505 11.8936C50.9961 11.9578 50.7417 11.9578 50.4237 12.0208C50.1699 12.0844 49.8519 12.0844 49.5969 12.148L48.8336 12.3388C48.5792 12.4024 48.3248 12.5296 48.1976 12.6568C48.0068 12.784 47.8796 12.9748 47.7524 13.1656C47.5622 13.42 47.5622 13.6744 47.5622 13.9924C47.5622 14.3104 47.6258 14.5649 47.753 14.7557C47.8802 14.9465 48.0075 15.1379 48.1983 15.2645C48.3891 15.3917 48.6435 15.4559 48.8979 15.5189C49.1523 15.5819 49.4061 15.5825 49.7241 15.5825C50.4243 15.5825 50.9325 15.4559 51.3141 15.2645C51.6964 15.0107 51.9501 14.7557 52.1416 14.4377C52.3324 14.1196 52.4596 13.8016 52.4596 13.4836C52.5232 13.1656 52.5232 12.9118 52.5232 12.7204V11.3848C52.3324 11.512 52.1416 11.6398 51.9501 11.7028ZM61.3009 4.83375V6.61461H61.3645C61.8091 5.85138 62.3821 5.34257 63.0811 5.02456C63.7814 4.70655 64.5446 4.51574 65.2436 4.51574C66.1976 4.51574 66.9608 4.64294 67.5333 4.89735C68.1693 5.15176 68.6151 5.53337 68.9331 5.97859C69.2512 6.4238 69.5049 6.99622 69.6957 7.63224C69.8229 8.26826 69.8872 8.96852 69.8872 9.79471V17.6178H66.3891V10.4307C66.3891 9.34949 66.1976 8.58627 65.8796 8.07745C65.5616 7.56864 64.9892 7.25063 64.0988 7.25063C63.1447 7.25063 62.4445 7.63224 61.9999 8.20466C61.5547 8.77707 61.3639 9.7311 61.3639 11.0031V17.6814H57.8658V4.83375H61.3009ZM77.7089 7.12342C77.1372 7.12342 76.6913 7.25063 76.3103 7.50567C75.9287 7.75944 75.6107 8.07745 75.3563 8.5233C75.1019 8.90491 74.9747 9.35013 74.8469 9.85894C74.7203 10.3684 74.7203 10.813 74.7203 11.3224C74.7203 11.767 74.7839 12.2765 74.8469 12.721C74.9747 13.2305 75.1013 13.6115 75.3563 13.9931C75.6107 14.3753 75.8651 14.6933 76.2467 14.9471C76.6283 15.2015 77.0729 15.3294 77.6453 15.3294C78.4728 15.3294 79.1088 15.0749 79.617 14.6291C80.0629 14.1845 80.3809 13.5485 80.4445 12.721H83.8154C83.5616 14.4383 82.9256 15.7103 81.8431 16.6014C80.7625 17.4912 79.3632 17.937 77.6453 17.937C76.6913 17.937 75.8009 17.7462 75.0377 17.4282C74.2102 17.1102 73.5742 16.665 73.0024 16.0926C72.4306 15.5202 71.9841 14.8205 71.6661 14.0573C71.3481 13.2305 71.2215 12.403 71.2215 11.449C71.2215 10.4314 71.3481 9.54093 71.6661 8.71411C71.9841 7.88728 72.3664 7.12406 72.9382 6.48804C73.5106 5.85202 74.2102 5.40681 74.9741 5.02519C75.8002 4.70718 76.6907 4.51638 77.7083 4.51638C78.4722 4.51638 79.1718 4.64358 79.8708 4.83439C80.5698 5.02519 81.2064 5.3432 81.7152 5.72418C82.2877 6.10643 82.7329 6.61461 83.0509 7.25063C83.3689 7.82304 83.5603 8.58627 83.6233 9.41309H80.1888C80.0635 7.88665 79.236 7.12342 77.7089 7.12342ZM19.1957 1.20844H26.3192V2.92569H19.1957V1.20844ZM89.0943 14.5649C89.6038 15.0737 90.43 15.3281 91.384 15.3281C92.0843 15.3281 92.7203 15.1373 93.2285 14.8193C93.7379 14.437 94.0559 14.056 94.1825 13.6738H97.236C96.7266 15.2002 95.964 16.2821 94.9457 16.9811C93.9275 17.6171 92.7197 17.9994 91.2568 17.9994C90.2392 17.9994 89.3487 17.8079 88.5213 17.4899C87.7384 17.198 87.0396 16.7177 86.4866 16.0913C85.9142 15.5189 85.469 14.8193 85.2146 13.9918C84.8966 13.165 84.7694 12.2752 84.7694 11.2569C84.7694 10.3029 84.8966 9.41309 85.2146 8.58563C85.521 7.78796 85.974 7.05471 86.5503 6.4238C87.1227 5.85138 87.8223 5.34257 88.5855 5.02456C89.4123 4.70655 90.3028 4.51574 91.2568 4.51574C92.3374 4.51574 93.2914 4.70655 94.0553 5.15176C94.8815 5.59698 95.5175 6.10579 96.0269 6.86901C96.5358 7.56864 96.9174 8.39483 97.1718 9.28589C97.4256 10.1757 97.4898 11.1297 97.4256 12.148H88.2033C88.2033 13.102 88.5855 14.056 89.0943 14.5649ZM93.1649 7.88665C92.7197 7.44143 92.0194 7.18702 91.1932 7.18702C90.6208 7.18702 90.1749 7.31359 89.7933 7.50503C89.4117 7.69584 89.0937 7.94961 88.9035 8.20466C88.7134 8.4597 88.5213 8.77707 88.4583 9.09508C88.3953 9.41309 88.3317 9.66687 88.3317 9.92191H94.0559C93.8645 8.96788 93.5465 8.33186 93.1649 7.88665Z" fill="#C2CDE7"/>
  </g>
  <defs>
    <clipPath id="clip0_0_1606">
      <rect width="96.9828" height="18" fill="white" transform="translate(0.482117)"/>
    </clipPath>
  </defs>
</svg>