<svg width="70" height="71" viewBox="0 0 70 71" fill="none" xmlns="http://www.w3.org/2000/svg">
<g filter="url(#filter0_b_26_5)">
<circle cx="35" cy="32" r="32" fill="url(#paint0_linear_26_5)" fill-opacity="0.5"/>
<circle cx="35" cy="32" r="31.5" stroke="#26293C"/>
</g>
<g filter="url(#filter1_f_26_5)">
<path d="M30.2918 37.3812L30.2161 37.1148C30.0836 36.649 30.012 36.156 30.012 35.647C30.012 32.6688 32.4547 30.2505 35.475 30.25C36.5991 30.2458 37.6971 30.5885 38.6192 31.2313C39.5416 31.8743 40.2431 32.7864 40.6278 33.8429L40.9111 34.6207L40.0908 34.5095C39.153 34.3822 38.1984 34.478 37.3047 34.789C37.2449 34.8122 37.1963 34.8575 37.169 34.9156C37.1412 34.9748 37.1376 35.0426 37.1592 35.1044C37.1807 35.1662 37.2256 35.217 37.2843 35.2461C37.3419 35.2746 37.4083 35.2798 37.4696 35.2607C38.037 35.0642 38.6473 34.955 39.2858 34.955L30.2918 37.3812ZM30.2918 37.3812L30.5579 37.4582M30.2918 37.3812L30.5579 37.4582M30.5579 37.4582C31.0067 37.5883 31.426 37.7829 31.8026 38.034L31.8117 38.04M30.5579 37.4582L31.8117 38.04M31.8117 38.04L31.8209 38.0457M31.8117 38.04L31.8209 38.0457M31.8209 38.0457C31.8497 38.0631 31.8747 38.0862 31.8944 38.1135C31.914 38.1409 31.928 38.1719 31.9353 38.2047C31.9427 38.2376 31.9434 38.2716 31.9373 38.3047C31.9312 38.3378 31.9185 38.3694 31.8999 38.3974C31.8813 38.4255 31.8573 38.4495 31.8292 38.4681C31.8011 38.4867 31.7695 38.4993 31.7364 38.5054C31.7033 38.5115 31.6693 38.5108 31.6365 38.5034C31.6036 38.496 31.5726 38.482 31.5453 38.4623L31.5373 38.4566M31.8209 38.0457L31.5373 38.4566M31.5373 38.4566L31.5292 38.4512M31.5373 38.4566L31.5292 38.4512M31.5292 38.4512C30.864 38.0104 30.0832 37.7765 29.2852 37.779M31.5292 38.4512L29.2852 37.779M29.2852 37.779C27.0536 37.7794 25.25 39.568 25.25 41.765C25.25 43.9624 27.0542 45.75 29.286 45.75H39.286C42.3068 45.75 44.75 43.3315 44.75 40.353C44.75 37.9927 43.215 35.9839 41.0738 35.2519C40.4983 35.0551 39.8942 34.9548 39.286 34.955L29.2852 37.779ZM29.2852 37.779C29.2855 37.779 29.2857 37.779 29.286 37.779V38.279L29.2852 37.779ZM41.3396 34.5633L41.389 34.8265L41.6355 34.9312C43.7603 35.8338 45.25 37.9196 45.25 40.353C45.25 43.6121 42.5766 46.25 39.286 46.25H29.286C26.7833 46.25 24.75 44.244 24.75 41.765C24.75 39.3362 26.6996 37.3629 29.1307 37.2817L29.7097 37.2624L29.6059 36.6924C29.5443 36.3539 29.512 36.0039 29.512 35.647C29.512 32.3878 32.1844 29.75 35.476 29.75C38.3932 29.75 40.8249 31.8225 41.3396 34.5633Z" fill="white" stroke="#27B1FF"/>
</g>
<path d="M29.5746 31.2108L29.4989 30.9444C29.3464 30.4083 29.264 29.8408 29.264 29.2548C29.264 25.8271 32.0757 23.0422 35.5543 23.0416C36.8486 23.0367 38.1129 23.4313 39.1747 24.1715C40.2368 24.9119 41.0444 25.962 41.4875 27.1785L41.7707 27.9564L40.9504 27.8451C39.8429 27.6948 38.7155 27.8081 37.66 28.1756C37.5697 28.2102 37.4963 28.2784 37.4551 28.366C37.4133 28.4549 37.408 28.5565 37.4403 28.6492C37.4727 28.7419 37.54 28.8182 37.628 28.8617C37.7149 28.9047 37.815 28.9124 37.9073 28.8833C38.5611 28.6567 39.2644 28.5308 40.0001 28.5308L29.5746 31.2108ZM29.5746 31.2108L29.8407 31.2879M29.5746 31.2108L29.8407 31.2879M29.8407 31.2879C30.3724 31.4419 30.8693 31.6725 31.316 31.9703L31.325 31.9763M29.8407 31.2879L31.325 31.9763M31.325 31.9763L31.3343 31.982M31.325 31.9763L31.3343 31.982M31.3343 31.982C31.3775 32.0081 31.4149 32.0427 31.4444 32.0837L31.8503 31.7918M31.3343 31.982L31.8503 31.7918M31.8503 31.7918L31.4444 32.0837C31.4739 32.1247 31.4948 32.1713 31.5059 32.2206C31.5169 32.2698 31.5179 32.3208 31.5088 32.3705C31.4997 32.4202 31.4806 32.4675 31.4527 32.5096C31.4248 32.5517 31.3888 32.5878 31.3466 32.6156C31.3045 32.6434 31.2571 32.6625 31.2075 32.6716C31.1578 32.6807 31.1068 32.6796 31.0575 32.6685L30.9476 33.1563L31.0575 32.6685C31.0083 32.6574 30.9617 32.6365 30.9208 32.607L30.9128 32.6012M31.8503 31.7918L30.9128 32.6012M30.9128 32.6012L30.9047 32.5958M30.9128 32.6012L30.9047 32.5958M42.0591 28.8727C41.3963 28.646 40.7007 28.5305 40.0003 28.5308L42.0591 28.8727ZM42.0591 28.8727C44.5249 29.7157 46.2916 32.0287 46.2916 34.7451C46.2916 38.1731 43.4794 40.9583 40.0003 40.9583H28.3336C25.775 40.9583 23.7083 38.9092 23.7083 36.3925C23.7083 33.8762 25.7744 31.8259 28.3329 31.8255M42.0591 28.8727L28.3329 31.8255M30.9047 32.5958C30.1423 32.0907 29.2474 31.8226 28.3329 31.8255M30.9047 32.5958L28.3329 31.8255M28.3329 31.8255C28.3331 31.8255 28.3334 31.8255 28.3336 31.8255V32.3255L28.3329 31.8255ZM42.4781 27.9751L42.5275 28.2383L42.774 28.343C45.2821 29.4084 47.0416 31.8711 47.0416 34.7451C47.0416 38.5944 43.8845 41.7083 40.0003 41.7083H28.3336C25.3688 41.7083 22.9583 39.3317 22.9583 36.3925C22.9583 33.5128 25.2696 31.1749 28.1497 31.0787L28.7287 31.0593L28.6249 30.4894C28.5521 30.0895 28.514 29.6762 28.514 29.2548C28.514 25.4055 31.67 22.2916 35.5553 22.2916C38.9989 22.2916 41.8703 24.7381 42.4781 27.9751Z" fill="white" stroke="#27B1FF"/>
<defs>
<filter id="filter0_b_26_5" x="-13" y="-16" width="96" height="96" filterUnits="userSpaceOnUse" color-interpolation-filters="sRGB">
<feFlood flood-opacity="0" result="BackgroundImageFix"/>
<feGaussianBlur in="BackgroundImageFix" stdDeviation="8"/>
<feComposite in2="SourceAlpha" operator="in" result="effect1_backgroundBlur_26_5"/>
<feBlend mode="normal" in="SourceGraphic" in2="effect1_backgroundBlur_26_5" result="shape"/>
</filter>
<filter id="filter1_f_26_5" x="-1" y="2" width="72" height="72" filterUnits="userSpaceOnUse" color-interpolation-filters="sRGB">
<feFlood flood-opacity="0" result="BackgroundImageFix"/>
<feBlend mode="normal" in="SourceGraphic" in2="BackgroundImageFix" result="shape"/>
<feGaussianBlur stdDeviation="12" result="effect1_foregroundBlur_26_5"/>
</filter>
<linearGradient id="paint0_linear_26_5" x1="10.5" y1="4.97559e-07" x2="45.5" y2="67" gradientUnits="userSpaceOnUse">
<stop stop-color="#080811"/>
<stop offset="1" stop-color="#111932"/>
</linearGradient>
</defs>
</svg>
