<svg xmlns="http://www.w3.org/2000/svg" width="75" height="18" viewBox="0 0 75 18" fill="none">
  <path d="M23.0492 7.24226C23.8926 7.24226 24.5762 6.55835 24.5762 5.71483C24.5762 4.87117 23.8926 4.1874 23.0492 4.1874C22.2058 4.1874 21.5222 4.87117 21.5222 5.71483C21.5222 6.55835 22.2058 7.24226 23.0492 7.24226ZM73.4445 12.461C73.2122 12.2976 73.0329 12.2706 72.8841 12.5878C70.3194 18.1425 65.9975 15.3706 66.4268 15.6146C67.3854 15.176 69.9068 13.154 69.5257 10.3619C69.2943 8.65557 67.8297 7.89869 66.2752 8.16969C63.5618 8.64276 62.5635 11.5695 63.0717 14.1607C63.1606 14.6057 63.3195 14.9727 63.4783 15.3322C60.4119 17.8258 59.1942 13.1 59.056 12.5352C59.0506 12.505 61.4237 10.527 62.0837 5.81342C62.7755 0.873337 61.1996 -0.0261681 59.5881 0.00189647C56.6061 0.0538519 55.8003 6.28433 56.8828 11.477C56.7922 11.5006 56.3702 11.7343 55.6922 11.7605C55.2043 10.2253 53.1196 8.87965 52.574 9.3982C51.2085 10.6954 52.9051 13.2314 54.099 13.4303C53.3818 17.8474 48.8968 16.7534 49.7317 11.2195C51.1922 8.50733 52.303 4.47452 52.1048 2.03996C52.0346 1.17802 51.3973 0.0231967 49.9561 0.0804772C47.184 0.190145 46.8826 6.42235 47.2076 10.8456C47.1915 10.7367 47.0372 11.383 45.9012 11.7044C45.6325 10.2129 43.2311 8.71587 42.6657 9.43561C41.6075 10.7827 43.4415 13.1846 44.3102 13.3521C43.593 17.7691 39.1082 16.6751 39.9431 11.1412C41.4036 8.42918 42.5142 4.39637 42.316 1.96181C42.2458 1.09972 41.6087 -0.0550962 40.1673 0.00204039C37.3952 0.111852 37.0939 6.34405 37.4188 10.7673C37.4026 10.6566 37.2447 11.3243 36.0624 11.6403C36.0228 9.70532 33.6126 8.81805 33.0336 9.43547C32.0016 10.536 33.2699 12.7942 34.4431 13.3521C33.726 17.7691 29.2411 16.6751 30.076 11.1412C31.5365 8.42918 32.6473 4.39637 32.449 1.96181C32.3789 1.09972 31.7416 -0.0550962 30.3002 0.00204039C27.5283 0.111852 27.3052 6.65737 27.6302 11.0805C26.7172 14.9924 23.6553 19.8776 24.053 10.0915C24.0923 9.40496 24.1352 9.14432 23.793 8.88728C23.5365 8.68752 22.9533 8.78365 22.6346 8.79157C22.2471 8.80711 22.15 9.03379 22.0644 9.37646C21.8649 10.2613 21.829 11.1191 21.8005 12.2894C21.7818 12.8369 21.7379 13.0924 21.5271 13.8389C21.3165 14.5852 20.1152 15.9495 19.4575 15.7214C18.5451 15.4076 18.8444 12.8317 19.0154 11.0619C19.1579 9.6633 18.7016 9.03523 17.5327 8.80683C16.8484 8.6642 16.4326 8.68608 15.7199 8.46142C15.0459 8.24899 14.8935 6.97414 13.456 7.39899C12.6698 7.63157 13.1752 9.29745 12.9863 10.5321C12.0573 16.6057 10.1242 16.7726 9.22748 13.8222C13.2663 3.93036 10.3958 0.0306806 8.71555 0.0306806C6.96548 0.0306806 4.96498 1.23616 5.8121 8.94916C5.40019 8.82899 5.27354 8.76423 4.82264 8.76423C2.27251 8.76423 0.535095 10.8257 0.535095 13.3688C0.535095 15.9119 2.27265 17.9736 4.82278 17.9736C6.3282 17.9736 7.38515 17.2889 8.18564 16.2298C8.70793 16.9778 9.34391 17.9851 10.5069 17.9398C13.9736 17.8048 14.9817 10.6938 15.1007 10.2971C15.4713 10.3543 15.8219 10.4623 16.1642 10.5195C16.7344 10.6051 16.7758 10.8308 16.7629 11.4043C16.6118 16.2406 17.5042 17.934 19.5286 17.934C20.6565 17.934 21.6618 16.8258 22.3544 16.0334C22.8716 17.101 23.6958 17.9013 24.8016 17.9338C27.481 18.0005 28.5068 13.7299 28.4133 14.2919C28.3399 14.7329 29.2826 17.9098 32.0409 17.9213C35.4578 17.9357 36.0929 14.1782 36.1686 13.5489C36.1781 13.4237 36.1823 13.4366 36.1686 13.5489L36.166 13.587C37.2507 13.3852 37.8104 12.8036 37.8104 12.8036C37.8104 12.8036 38.6814 17.9798 41.9079 17.9215C45.2583 17.8607 45.8901 14.4642 45.973 13.8019C45.984 13.6447 45.9905 13.6631 45.973 13.8019C45.9726 13.8084 45.9722 13.8148 45.9718 13.8213C47.2603 13.3526 47.5992 12.8821 47.5992 12.8821C47.5992 12.8821 48.2915 17.9553 51.6966 17.9996C54.7311 18.0393 55.8557 14.9319 55.8623 13.6313C56.3741 13.6368 57.3208 13.3277 57.2986 13.3101C57.2986 13.3101 58.4101 17.7457 61.514 17.9736C62.9714 18.0805 64.0646 17.1535 64.6878 16.7307C66.1523 17.9167 71.0291 19.4316 74.1084 14.2109C74.5431 13.4617 73.6086 12.5765 73.4445 12.461ZM4.69973 16.2514C3.21188 16.2514 2.25783 14.8757 2.25783 13.3923C2.25783 11.909 3.13358 10.5333 4.62144 10.5333C5.29096 10.5333 5.66342 10.607 6.18485 11.0605C6.27941 11.4331 6.54739 12.2926 6.67778 12.6829C6.8525 13.2052 7.06032 13.6498 7.26987 14.1336C6.97051 15.3747 5.98912 16.2514 4.69973 16.2514ZM8.32538 11.1041C8.2635 11.0055 8.27645 11.0661 8.20722 10.973C7.93449 10.2311 7.4089 8.57511 7.34802 6.69421C7.27922 4.56649 7.63384 2.07248 8.67929 2.07248C9.38766 2.07248 10.1405 7.12698 8.32524 11.1041H8.32538ZM29.2746 8.88713C29.1068 7.62452 29.098 1.99577 30.4493 2.15078C31.1954 2.45301 29.9763 7.76441 29.2746 8.88713ZM39.1417 8.88713C38.9739 7.62452 38.9651 1.99577 40.3164 2.15078C41.0625 2.45301 39.8433 7.76441 39.1417 8.88713ZM48.9305 8.96557C48.7625 7.70281 48.7539 2.07407 50.105 2.22907C50.8511 2.5313 49.6319 7.84284 48.9305 8.96557ZM59.7372 1.82134C60.9726 1.69325 60.9217 7.08827 58.4419 10.4943C58.1221 9.2632 57.6318 2.24404 59.7372 1.8212V1.82134ZM64.9299 13.4303C64.5331 11.4259 65.5584 10.1095 66.6153 9.9651C66.9848 9.90609 67.5201 10.1454 67.6269 10.5929C67.8025 11.4361 67.6015 12.6869 65.2358 14.2739C65.2393 14.2875 65.0184 13.8767 64.93 13.4303H64.9299Z" fill="#C2CDE7"/>
</svg>