<svg width="67" height="72" viewBox="0 0 67 72" fill="none" xmlns="http://www.w3.org/2000/svg">
<g filter="url(#filter0_b_26_303)">
<circle cx="33" cy="32" r="32" fill="url(#paint0_linear_26_303)" fill-opacity="0.5"/>
<circle cx="33" cy="32" r="31.5" stroke="#26293C"/>
</g>
<g filter="url(#filter1_f_26_303)">
<path d="M24.573 39.0718C24.5731 39.0717 24.5733 39.0715 24.5734 39.0714L24.573 39.0718ZM24.573 39.0718L24.5719 39.0729C24.5723 39.0725 24.5726 39.0722 24.573 39.0718Z" fill="white" stroke="#FF603E" stroke-width="2"/>
</g>
<mask id="path-4-inside-1_26_303" fill="white">
<path d="M38.5405 20.3334H43.8535L43.9702 20.3497L44.0857 20.3824L44.1557 20.4127C44.249 20.4524 44.3342 20.5119 44.4112 20.5877L44.4578 20.639L44.5092 20.7055L44.5722 20.8105L44.6177 20.9155L44.6398 20.9902L44.6562 21.0649L44.6667 21.1757V26.463C44.6666 26.6847 44.5824 26.8981 44.431 27.0601C44.2797 27.2221 44.0725 27.3206 43.8513 27.3357C43.6301 27.3508 43.4115 27.2814 43.2395 27.1415C43.0675 27.0016 42.9551 26.8017 42.9248 26.582L42.9167 26.463V23.3189L35.4033 30.8322C35.2552 30.9804 35.0588 31.0705 34.8498 31.0861C34.6408 31.1018 34.4332 31.0419 34.2647 30.9174L34.1667 30.8334L30.6317 27.4384L23.9933 34.0755C23.8372 34.2321 23.6276 34.3237 23.4066 34.3321C23.1857 34.3404 22.9698 34.2647 22.8024 34.1203C22.6349 33.9759 22.5283 33.7735 22.5041 33.5537C22.4798 33.334 22.5396 33.1132 22.6715 32.9357L22.7567 32.8377L30.0133 25.581C30.1616 25.433 30.3581 25.3431 30.5671 25.3277C30.776 25.3123 30.9836 25.3724 31.152 25.497L31.25 25.581L34.785 28.976L41.6777 22.0834H38.5393C38.3281 22.0831 38.1241 22.0064 37.965 21.8674C37.8059 21.7285 37.7024 21.5367 37.6737 21.3274L37.6655 21.2084C37.6655 20.9969 37.7421 20.7926 37.8811 20.6333C38.02 20.4739 38.212 20.3703 38.4215 20.3415L38.5405 20.3334ZM23.375 39C23.6071 39 23.8296 39.0922 23.9937 39.2563C24.1578 39.4204 24.25 39.643 24.25 39.875V42.7917C24.25 43.0238 24.1578 43.2463 23.9937 43.4104C23.8296 43.5745 23.6071 43.6667 23.375 43.6667C23.1429 43.6667 22.9204 43.5745 22.7563 43.4104C22.5922 43.2463 22.5 43.0238 22.5 42.7917V39.875C22.5 39.643 22.5922 39.4204 22.7563 39.2563C22.9204 39.0922 23.1429 39 23.375 39ZM30.0833 35.2084C30.0833 34.9763 29.9911 34.7537 29.8271 34.5897C29.663 34.4256 29.4404 34.3334 29.2083 34.3334C28.9763 34.3334 28.7537 34.4256 28.5896 34.5897C28.4255 34.7537 28.3333 34.9763 28.3333 35.2084V42.7917C28.3333 43.0238 28.4255 43.2463 28.5896 43.4104C28.7537 43.5745 28.9763 43.6667 29.2083 43.6667C29.4404 43.6667 29.663 43.5745 29.8271 43.4104C29.9911 43.2463 30.0833 43.0238 30.0833 42.7917V35.2084ZM35.0417 36.6667C35.2737 36.6667 35.4963 36.7589 35.6604 36.923C35.8245 37.0871 35.9167 37.3096 35.9167 37.5417V42.7917C35.9167 43.0238 35.8245 43.2463 35.6604 43.4104C35.4963 43.5745 35.2737 43.6667 35.0417 43.6667C34.8096 43.6667 34.587 43.5745 34.4229 43.4104C34.2589 43.2463 34.1667 43.0238 34.1667 42.7917V37.5417C34.1667 37.3096 34.2589 37.0871 34.4229 36.923C34.587 36.7589 34.8096 36.6667 35.0417 36.6667ZM41.75 31.7084C41.75 31.4763 41.6578 31.2537 41.4937 31.0897C41.3296 30.9256 41.1071 30.8334 40.875 30.8334C40.6429 30.8334 40.4204 30.9256 40.2563 31.0897C40.0922 31.2537 40 31.4763 40 31.7084V42.7917C40 43.0238 40.0922 43.2463 40.2563 43.4104C40.4204 43.5745 40.6429 43.6667 40.875 43.6667C41.1071 43.6667 41.3296 43.5745 41.4937 43.4104C41.6578 43.2463 41.75 43.0238 41.75 42.7917V31.7084Z"/>
</mask>
<path d="M38.5405 20.3334H43.8535L43.9702 20.3497L44.0857 20.3824L44.1557 20.4127C44.249 20.4524 44.3342 20.5119 44.4112 20.5877L44.4578 20.639L44.5092 20.7055L44.5722 20.8105L44.6177 20.9155L44.6398 20.9902L44.6562 21.0649L44.6667 21.1757V26.463C44.6666 26.6847 44.5824 26.8981 44.431 27.0601C44.2797 27.2221 44.0725 27.3206 43.8513 27.3357C43.6301 27.3508 43.4115 27.2814 43.2395 27.1415C43.0675 27.0016 42.9551 26.8017 42.9248 26.582L42.9167 26.463V23.3189L35.4033 30.8322C35.2552 30.9804 35.0588 31.0705 34.8498 31.0861C34.6408 31.1018 34.4332 31.0419 34.2647 30.9174L34.1667 30.8334L30.6317 27.4384L23.9933 34.0755C23.8372 34.2321 23.6276 34.3237 23.4066 34.3321C23.1857 34.3404 22.9698 34.2647 22.8024 34.1203C22.6349 33.9759 22.5283 33.7735 22.5041 33.5537C22.4798 33.334 22.5396 33.1132 22.6715 32.9357L22.7567 32.8377L30.0133 25.581C30.1616 25.433 30.3581 25.3431 30.5671 25.3277C30.776 25.3123 30.9836 25.3724 31.152 25.497L31.25 25.581L34.785 28.976L41.6777 22.0834H38.5393C38.3281 22.0831 38.1241 22.0064 37.965 21.8674C37.8059 21.7285 37.7024 21.5367 37.6737 21.3274L37.6655 21.2084C37.6655 20.9969 37.7421 20.7926 37.8811 20.6333C38.02 20.4739 38.212 20.3703 38.4215 20.3415L38.5405 20.3334ZM23.375 39C23.6071 39 23.8296 39.0922 23.9937 39.2563C24.1578 39.4204 24.25 39.643 24.25 39.875V42.7917C24.25 43.0238 24.1578 43.2463 23.9937 43.4104C23.8296 43.5745 23.6071 43.6667 23.375 43.6667C23.1429 43.6667 22.9204 43.5745 22.7563 43.4104C22.5922 43.2463 22.5 43.0238 22.5 42.7917V39.875C22.5 39.643 22.5922 39.4204 22.7563 39.2563C22.9204 39.0922 23.1429 39 23.375 39ZM30.0833 35.2084C30.0833 34.9763 29.9911 34.7537 29.8271 34.5897C29.663 34.4256 29.4404 34.3334 29.2083 34.3334C28.9763 34.3334 28.7537 34.4256 28.5896 34.5897C28.4255 34.7537 28.3333 34.9763 28.3333 35.2084V42.7917C28.3333 43.0238 28.4255 43.2463 28.5896 43.4104C28.7537 43.5745 28.9763 43.6667 29.2083 43.6667C29.4404 43.6667 29.663 43.5745 29.8271 43.4104C29.9911 43.2463 30.0833 43.0238 30.0833 42.7917V35.2084ZM35.0417 36.6667C35.2737 36.6667 35.4963 36.7589 35.6604 36.923C35.8245 37.0871 35.9167 37.3096 35.9167 37.5417V42.7917C35.9167 43.0238 35.8245 43.2463 35.6604 43.4104C35.4963 43.5745 35.2737 43.6667 35.0417 43.6667C34.8096 43.6667 34.587 43.5745 34.4229 43.4104C34.2589 43.2463 34.1667 43.0238 34.1667 42.7917V37.5417C34.1667 37.3096 34.2589 37.0871 34.4229 36.923C34.587 36.7589 34.8096 36.6667 35.0417 36.6667ZM41.75 31.7084C41.75 31.4763 41.6578 31.2537 41.4937 31.0897C41.3296 30.9256 41.1071 30.8334 40.875 30.8334C40.6429 30.8334 40.4204 30.9256 40.2563 31.0897C40.0922 31.2537 40 31.4763 40 31.7084V42.7917C40 43.0238 40.0922 43.2463 40.2563 43.4104C40.4204 43.5745 40.6429 43.6667 40.875 43.6667C41.1071 43.6667 41.3296 43.5745 41.4937 43.4104C41.6578 43.2463 41.75 43.0238 41.75 42.7917V31.7084Z" fill="white"/>
<path d="M38.5405 20.3334V18.3334H38.472L38.4036 18.3381L38.5405 20.3334ZM43.8535 20.3334L44.1308 18.3527L43.9928 18.3334H43.8535V20.3334ZM43.9702 20.3497L44.5145 18.4252L44.3829 18.388L44.2475 18.369L43.9702 20.3497ZM44.0857 20.3824L44.8809 18.5473L44.7584 18.4942L44.63 18.4579L44.0857 20.3824ZM44.1557 20.4127L43.3604 22.2479L43.3734 22.2534L44.1557 20.4127ZM44.4112 20.5877L45.8911 19.2424L45.8539 19.2015L45.8145 19.1627L44.4112 20.5877ZM44.4578 20.639L46.041 19.4169L45.9918 19.3532L45.9377 19.2937L44.4578 20.639ZM44.5092 20.7055L46.2241 19.6765L46.1639 19.5761L46.0923 19.4834L44.5092 20.7055ZM44.5722 20.8105L46.4073 20.0153L46.3549 19.8945L46.2871 19.7815L44.5722 20.8105ZM44.6177 20.9155L46.535 20.3464L46.5007 20.2309L46.4528 20.1203L44.6177 20.9155ZM44.6398 20.9902L46.5936 20.5628L46.578 20.4913L46.5571 20.421L44.6398 20.9902ZM44.6562 21.0649L46.6472 20.8762L46.6358 20.7557L46.61 20.6375L44.6562 21.0649ZM44.6667 21.1757H46.6667V21.0812L46.6578 20.9871L44.6667 21.1757ZM44.6667 26.463L46.6667 26.4637V26.463H44.6667ZM42.9248 26.582L40.9295 26.719L40.9342 26.7871L40.9435 26.8547L42.9248 26.582ZM42.9167 26.463H40.9167V26.5316L40.9214 26.6L42.9167 26.463ZM42.9167 23.3189H44.9167V18.4904L41.5025 21.9047L42.9167 23.3189ZM35.4033 30.8322L33.9891 29.418L33.989 29.4182L35.4033 30.8322ZM34.2647 30.9174L32.9631 32.4359L33.0181 32.483L33.0764 32.5261L34.2647 30.9174ZM34.1667 30.8334L32.7813 32.2759L32.8221 32.3151L32.8651 32.3519L34.1667 30.8334ZM30.6317 27.4384L32.017 25.9959L30.6035 24.6383L29.2176 26.024L30.6317 27.4384ZM23.9933 34.0755L22.5792 32.6612L22.5772 32.6633L23.9933 34.0755ZM22.6715 32.9357L21.1619 31.6238L21.1118 31.6814L21.0663 31.7426L22.6715 32.9357ZM22.7567 32.8377L21.3425 31.4235L21.293 31.473L21.2471 31.5258L22.7567 32.8377ZM30.0133 25.581L28.6005 24.1655L28.5991 24.1668L30.0133 25.581ZM31.152 25.497L32.4536 23.9785L32.3993 23.932L32.3418 23.8895L31.152 25.497ZM31.25 25.581L32.6354 24.1386L32.5945 24.0994L32.5516 24.0625L31.25 25.581ZM34.785 28.976L33.3996 30.4185L34.8133 31.7762L36.1992 30.3903L34.785 28.976ZM41.6777 22.0834L43.0919 23.4976L46.5061 20.0834H41.6777V22.0834ZM38.5393 22.0834L38.5366 24.0834H38.5393V22.0834ZM37.6737 21.3274L35.6784 21.4643L35.683 21.5321L35.6922 21.5994L37.6737 21.3274ZM37.6655 21.2084L35.6655 21.2083L35.6655 21.2769L35.6702 21.3453L37.6655 21.2084ZM38.4215 20.3415L38.2846 18.3462L38.2168 18.3509L38.1495 18.3601L38.4215 20.3415ZM24.25 39.875H26.25H24.25ZM24.25 42.7917H26.25H24.25ZM28.3333 35.2084H26.3333H28.3333ZM38.5405 22.3334H43.8535V18.3334H38.5405V22.3334ZM43.5762 22.3141L43.6929 22.3304L44.2475 18.369L44.1308 18.3527L43.5762 22.3141ZM43.4259 22.2742L43.5414 22.3069L44.63 18.4579L44.5145 18.4252L43.4259 22.2742ZM43.2904 22.2175L43.3604 22.2478L44.9509 18.5776L44.8809 18.5473L43.2904 22.2175ZM43.3734 22.2534C43.2039 22.1813 43.0838 22.0875 43.0078 22.0127L45.8145 19.1627C45.5846 18.9363 45.2941 18.7234 44.9379 18.572L43.3734 22.2534ZM42.9313 21.933L42.9779 21.9844L45.9377 19.2937L45.8911 19.2424L42.9313 21.933ZM42.8747 21.8612L42.926 21.9277L46.0923 19.4834L46.041 19.4169L42.8747 21.8612ZM42.7942 21.7345L42.8572 21.8395L46.2871 19.7815L46.2241 19.6765L42.7942 21.7345ZM42.7371 21.6057L42.7826 21.7107L46.4528 20.1203L46.4073 20.0153L42.7371 21.6057ZM42.7004 21.4847L42.7225 21.5594L46.5571 20.421L46.535 20.3464L42.7004 21.4847ZM42.686 21.4176L42.7024 21.4923L46.61 20.6375L46.5936 20.5628L42.686 21.4176ZM42.6651 21.2535L42.6756 21.3644L46.6578 20.9871L46.6472 20.8762L42.6651 21.2535ZM42.6667 21.1757V26.463H46.6667V21.1757H42.6667ZM42.6667 26.4624C42.6668 26.1774 42.775 25.903 42.9696 25.6947L45.8924 28.4255C46.3897 27.8933 46.6664 27.1921 46.6667 26.4637L42.6667 26.4624ZM42.9696 25.6947C43.1642 25.4865 43.4306 25.3598 43.715 25.3404L43.9876 29.3311C44.7144 29.2814 45.3951 28.9578 45.8924 28.4255L42.9696 25.6947ZM43.715 25.3404C43.9994 25.321 44.2805 25.4102 44.5016 25.5901L41.9774 28.693C42.5424 29.1527 43.2609 29.3807 43.9876 29.3311L43.715 25.3404ZM44.5016 25.5901C44.7227 25.77 44.8673 26.0271 44.9062 26.3094L40.9435 26.8547C41.0428 27.5763 41.4123 28.2333 41.9774 28.693L44.5016 25.5901ZM44.9201 26.4451L44.912 26.3261L40.9214 26.6L40.9295 26.719L44.9201 26.4451ZM44.9167 26.463V23.3189H40.9167V26.463H44.9167ZM41.5025 21.9047L33.9891 29.418L36.8175 32.2464L44.3309 24.7331L41.5025 21.9047ZM33.989 29.4182C34.1794 29.2276 34.432 29.1118 34.7006 29.0917L34.999 33.0806C35.6856 33.0292 36.3309 32.7332 36.8177 32.2463L33.989 29.4182ZM34.7006 29.0917C34.9693 29.0716 35.2363 29.1486 35.453 29.3087L33.0764 32.5261C33.6302 32.9352 34.3124 33.1319 34.999 33.0806L34.7006 29.0917ZM35.5662 29.3989L35.4682 29.3149L32.8651 32.3519L32.9631 32.4359L35.5662 29.3989ZM35.552 29.3909L32.017 25.9959L29.2463 28.8809L32.7813 32.2759L35.552 29.3909ZM29.2176 26.024L22.5792 32.6612L25.4074 35.4899L32.0458 28.8527L29.2176 26.024ZM22.5772 32.6633C22.7779 32.462 23.0474 32.3441 23.3315 32.3335L23.4818 36.3306C24.2078 36.3033 24.8965 36.0022 25.4095 35.4878L22.5772 32.6633ZM23.3315 32.3335C23.6156 32.3228 23.8932 32.42 24.1084 32.6057L21.4963 35.635C22.0464 36.1094 22.7558 36.3579 23.4818 36.3306L23.3315 32.3335ZM24.1084 32.6057C24.3237 32.7913 24.4608 33.0516 24.492 33.3342L20.5161 33.7733C20.5959 34.4954 20.9461 35.1605 21.4963 35.635L24.1084 32.6057ZM24.492 33.3342C24.5232 33.6167 24.4463 33.9006 24.2767 34.1288L21.0663 31.7426C20.633 32.3257 20.4364 33.0512 20.5161 33.7733L24.492 33.3342ZM24.1811 34.2476L24.2663 34.1496L21.2471 31.5258L21.1619 31.6238L24.1811 34.2476ZM24.1709 34.2519L31.4275 26.9953L28.5991 24.1668L21.3425 31.4235L24.1709 34.2519ZM31.4262 26.9966C31.2355 27.1869 30.9829 27.3025 30.7142 27.3223L30.4199 23.3331C29.7334 23.3838 29.0878 23.6791 28.6005 24.1655L31.4262 26.9966ZM30.7142 27.3223C30.4456 27.3421 30.1787 27.2649 29.9622 27.1046L32.3418 23.8895C31.7885 23.4799 31.1065 23.2825 30.4199 23.3331L30.7142 27.3223ZM29.8504 27.0156L29.9484 27.0996L32.5516 24.0625L32.4536 23.9785L29.8504 27.0156ZM29.8646 27.0235L33.3996 30.4185L36.1704 27.5336L32.6354 24.1386L29.8646 27.0235ZM36.1992 30.3903L43.0919 23.4976L40.2635 20.6692L33.3708 27.5618L36.1992 30.3903ZM41.6777 20.0834H38.5393V24.0834H41.6777V20.0834ZM38.5421 20.0834C38.8137 20.0837 39.076 20.1824 39.2805 20.361L36.6494 23.3738C37.1722 23.8304 37.8425 24.0824 38.5366 24.0834L38.5421 20.0834ZM39.2805 20.361C39.4851 20.5397 39.6181 20.7863 39.6551 21.0554L35.6922 21.5994C35.7866 22.287 36.1266 22.9173 36.6494 23.3738L39.2805 20.361ZM39.669 21.1904L39.6608 21.0714L35.6702 21.3453L35.6784 21.4643L39.669 21.1904ZM39.6655 21.2085C39.6655 21.4803 39.567 21.743 39.3883 21.9479L36.3738 19.3187C35.9171 19.8423 35.6655 20.5135 35.6655 21.2083L39.6655 21.2085ZM39.3883 21.9479C39.2097 22.1527 38.9628 22.286 38.6935 22.323L38.1495 18.3601C37.4612 18.4546 36.8304 18.7951 36.3738 19.3187L39.3883 21.9479ZM38.5584 22.3368L38.6774 22.3287L38.4036 18.3381L38.2846 18.3462L38.5584 22.3368ZM23.375 41C23.0766 41 22.7905 40.8815 22.5795 40.6705L25.4079 37.8421C24.8688 37.3029 24.1375 37 23.375 37V41ZM22.5795 40.6705C22.3685 40.4596 22.25 40.1734 22.25 39.875H26.25C26.25 39.1125 25.9471 38.3813 25.4079 37.8421L22.5795 40.6705ZM22.25 39.875V42.7917H26.25V39.875H22.25ZM22.25 42.7917C22.25 42.4933 22.3685 42.2072 22.5795 41.9962L25.4079 44.8246C25.9471 44.2855 26.25 43.5542 26.25 42.7917H22.25ZM22.5795 41.9962C22.7905 41.7852 23.0766 41.6667 23.375 41.6667V45.6667C24.1375 45.6667 24.8688 45.3638 25.4079 44.8246L22.5795 41.9962ZM23.375 41.6667C23.6734 41.6667 23.9595 41.7852 24.1705 41.9962L21.3421 44.8246C21.8812 45.3638 22.6125 45.6667 23.375 45.6667V41.6667ZM24.1705 41.9962C24.3815 42.2072 24.5 42.4933 24.5 42.7917H20.5C20.5 43.5542 20.8029 44.2855 21.3421 44.8246L24.1705 41.9962ZM24.5 42.7917V39.875H20.5V42.7917H24.5ZM24.5 39.875C24.5 40.1734 24.3815 40.4596 24.1705 40.6705L21.3421 37.8421C20.8029 38.3813 20.5 39.1125 20.5 39.875H24.5ZM24.1705 40.6705C23.9595 40.8815 23.6734 41 23.375 41V37C22.6125 37 21.8812 37.3029 21.3421 37.8421L24.1705 40.6705ZM32.0833 35.2084C32.0833 34.4459 31.7804 33.7146 31.2413 33.1754L28.4128 36.0039C28.2019 35.7929 28.0833 35.5067 28.0833 35.2084H32.0833ZM31.2413 33.1754C30.7021 32.6363 29.9708 32.3334 29.2083 32.3334V36.3334C28.91 36.3334 28.6238 36.2148 28.4128 36.0039L31.2413 33.1754ZM29.2083 32.3334C28.4458 32.3334 27.7146 32.6363 27.1754 33.1754L30.0038 36.0039C29.7929 36.2148 29.5067 36.3334 29.2083 36.3334V32.3334ZM27.1754 33.1754C26.6362 33.7146 26.3333 34.4459 26.3333 35.2084H30.3333C30.3333 35.5067 30.2148 35.7929 30.0038 36.0039L27.1754 33.1754ZM26.3333 35.2084V42.7917H30.3333V35.2084H26.3333ZM26.3333 42.7917C26.3333 43.5542 26.6362 44.2855 27.1754 44.8246L30.0038 41.9962C30.2148 42.2072 30.3333 42.4933 30.3333 42.7917H26.3333ZM27.1754 44.8246C27.7146 45.3638 28.4458 45.6667 29.2083 45.6667V41.6667C29.5067 41.6667 29.7928 41.7852 30.0038 41.9962L27.1754 44.8246ZM29.2083 45.6667C29.9708 45.6667 30.7021 45.3638 31.2413 44.8246L28.4128 41.9962C28.6238 41.7852 28.91 41.6667 29.2083 41.6667V45.6667ZM31.2413 44.8246C31.7804 44.2855 32.0833 43.5542 32.0833 42.7917H28.0833C28.0833 42.4933 28.2019 42.2072 28.4128 41.9962L31.2413 44.8246ZM32.0833 42.7917V35.2084H28.0833V42.7917H32.0833ZM35.0417 38.6667C34.7433 38.6667 34.4571 38.5482 34.2462 38.3372L37.0746 35.5088C36.5354 34.9696 35.8042 34.6667 35.0417 34.6667V38.6667ZM34.2462 38.3372C34.0352 38.1262 33.9167 37.8401 33.9167 37.5417H37.9167C37.9167 36.7792 37.6138 36.0479 37.0746 35.5088L34.2462 38.3372ZM33.9167 37.5417V42.7917H37.9167V37.5417H33.9167ZM33.9167 42.7917C33.9167 42.4933 34.0352 42.2072 34.2462 41.9962L37.0746 44.8246C37.6138 44.2855 37.9167 43.5542 37.9167 42.7917H33.9167ZM34.2462 41.9962C34.4572 41.7852 34.7433 41.6667 35.0417 41.6667V45.6667C35.8042 45.6667 36.5354 45.3638 37.0746 44.8246L34.2462 41.9962ZM35.0417 41.6667C35.34 41.6667 35.6262 41.7852 35.8372 41.9962L33.0087 44.8246C33.5479 45.3638 34.2792 45.6667 35.0417 45.6667V41.6667ZM35.8372 41.9962C36.0481 42.2072 36.1667 42.4933 36.1667 42.7917H32.1667C32.1667 43.5542 32.4696 44.2855 33.0087 44.8246L35.8372 41.9962ZM36.1667 42.7917V37.5417H32.1667V42.7917H36.1667ZM36.1667 37.5417C36.1667 37.8401 36.0481 38.1262 35.8372 38.3372L33.0087 35.5088C32.4696 36.0479 32.1667 36.7792 32.1667 37.5417H36.1667ZM35.8372 38.3372C35.6262 38.5482 35.34 38.6667 35.0417 38.6667V34.6667C34.2792 34.6667 33.5479 34.9696 33.0087 35.5088L35.8372 38.3372ZM43.75 31.7084C43.75 30.9459 43.4471 30.2146 42.9079 29.6754L40.0795 32.5039C39.8685 32.2929 39.75 32.0067 39.75 31.7084H43.75ZM42.9079 29.6754C42.3688 29.1363 41.6375 28.8334 40.875 28.8334V32.8334C40.5766 32.8334 40.2905 32.7148 40.0795 32.5039L42.9079 29.6754ZM40.875 28.8334C40.1125 28.8334 39.3812 29.1363 38.8421 29.6754L41.6705 32.5039C41.4595 32.7148 41.1734 32.8334 40.875 32.8334V28.8334ZM38.8421 29.6754C38.3029 30.2146 38 30.9459 38 31.7084H42C42 32.0067 41.8815 32.2929 41.6705 32.5039L38.8421 29.6754ZM38 31.7084V42.7917H42V31.7084H38ZM38 42.7917C38 43.5542 38.3029 44.2855 38.8421 44.8246L41.6705 41.9962C41.8815 42.2072 42 42.4933 42 42.7917H38ZM38.8421 44.8246C39.3812 45.3638 40.1125 45.6667 40.875 45.6667V41.6667C41.1734 41.6667 41.4595 41.7852 41.6705 41.9962L38.8421 44.8246ZM40.875 45.6667C41.6375 45.6667 42.3688 45.3638 42.9079 44.8246L40.0795 41.9962C40.2905 41.7852 40.5766 41.6667 40.875 41.6667V45.6667ZM42.9079 44.8246C43.4471 44.2855 43.75 43.5542 43.75 42.7917H39.75C39.75 42.4933 39.8685 42.2072 40.0795 41.9962L42.9079 44.8246ZM43.75 42.7917V31.7084H39.75V42.7917H43.75Z" fill="#FF603E" mask="url(#path-4-inside-1_26_303)"/>
<defs>
<filter id="filter0_b_26_303" x="-15" y="-16" width="96" height="96" filterUnits="userSpaceOnUse" color-interpolation-filters="sRGB">
<feFlood flood-opacity="0" result="BackgroundImageFix"/>
<feGaussianBlur in="BackgroundImageFix" stdDeviation="8"/>
<feComposite in2="SourceAlpha" operator="in" result="effect1_backgroundBlur_26_303"/>
<feBlend mode="normal" in="SourceGraphic" in2="effect1_backgroundBlur_26_303" result="shape"/>
</filter>
<filter id="filter1_f_26_303" x="-3" y="2" width="72" height="72" filterUnits="userSpaceOnUse" color-interpolation-filters="sRGB">
<feFlood flood-opacity="0" result="BackgroundImageFix"/>
<feBlend mode="normal" in="SourceGraphic" in2="BackgroundImageFix" result="shape"/>
<feGaussianBlur stdDeviation="12" result="effect1_foregroundBlur_26_303"/>
</filter>
<linearGradient id="paint0_linear_26_303" x1="8.5" y1="4.97559e-07" x2="43.5" y2="67" gradientUnits="userSpaceOnUse">
<stop stop-color="#080811"/>
<stop offset="1" stop-color="#111932"/>
</linearGradient>
</defs>
</svg>
