<svg width="68" height="73" viewBox="0 0 68 73" fill="none" xmlns="http://www.w3.org/2000/svg">
<g filter="url(#filter0_b_26_440)">
<circle cx="34" cy="32" r="32" fill="url(#paint0_linear_26_440)" fill-opacity="0.5"/>
<circle cx="34" cy="32" r="31.5" stroke="#26293C"/>
</g>
<g filter="url(#filter1_f_26_440)">
<path d="M35.8884 34.1969L35.5348 34.5505L35.8884 34.1969L35.7774 34.086C36.0489 33.8382 36.4038 33.7 36.773 33.7C37.1646 33.7 37.5401 33.8555 37.8171 34.1323C38.094 34.4093 38.2495 34.7849 38.2495 35.1765C38.2495 35.5681 38.094 35.9437 37.8171 36.2207L36.113 37.9248C36.051 37.9868 35.9504 37.9868 35.8884 37.9248C35.8263 37.8627 35.8263 37.7621 35.8884 37.7001L37.5925 35.996L37.5925 35.996L37.5986 35.9898C37.8097 35.7712 37.9265 35.4784 37.9238 35.1745C37.9212 34.8707 37.7993 34.58 37.5844 34.3651C37.3695 34.1502 37.0789 34.0283 36.775 34.0257C36.4906 34.0232 36.216 34.1253 36.0028 34.3114L35.8884 34.1969ZM31.4992 41.5991C31.7836 41.6016 32.0582 41.4995 32.2714 41.3134L32.4978 41.5399C32.3704 41.6617 32.2221 41.7599 32.0599 41.8296L32.2572 42.289L32.0599 41.8296C31.8797 41.907 31.6859 41.9478 31.4898 41.9495C31.2937 41.9512 31.0992 41.9138 30.9177 41.8395C30.7362 41.7653 30.5713 41.6556 30.4326 41.5169C30.2939 41.3783 30.1842 41.2134 30.11 41.0319C30.0357 40.8504 29.9984 40.6559 30.0001 40.4598C30.0018 40.2637 30.0425 40.0699 30.1199 39.8897C30.1973 39.7095 30.3098 39.5465 30.4509 39.4103L30.4509 39.4103L30.4571 39.4042L32.1612 37.7001C32.2232 37.638 32.3238 37.638 32.3859 37.7001C32.4479 37.7621 32.4479 37.8627 32.3859 37.9248L30.6818 39.6289L30.6817 39.6288L30.6757 39.6351C30.4646 39.8536 30.3477 40.1464 30.3504 40.4503C30.353 40.7542 30.4749 41.0448 30.6898 41.2597L31.0433 40.9062L30.6898 41.2597C30.9047 41.4746 31.1954 41.5965 31.4992 41.5991ZM30.351 35.1739C30.3486 35.4582 30.4507 35.7328 30.6368 35.946L30.4136 36.1692C30.1864 35.8978 30.0635 35.553 30.0692 35.1973C30.0753 34.8138 30.2305 34.4477 30.5017 34.1765C30.773 33.9053 31.1391 33.7502 31.5227 33.7442C31.9038 33.7382 32.2723 33.8797 32.5514 34.1391L34.2495 35.8366C34.3115 35.8986 34.3115 35.9991 34.2495 36.0611C34.1875 36.1231 34.087 36.1231 34.025 36.0611L32.3214 34.3565L32.3215 34.3565L32.3151 34.3503C32.0965 34.1392 31.8038 34.0224 31.4999 34.025C31.196 34.0277 30.9053 34.1495 30.6905 34.3644C30.4756 34.5793 30.3537 34.87 30.351 35.1739Z" fill="#933EFF" stroke="#933EFF" stroke-linejoin="round"/>
<path d="M37.9769 40.3971C37.9794 40.1128 37.8773 39.8382 37.6912 39.625L37.9154 39.4007C38.152 39.6723 38.2818 40.0218 38.2787 40.3837C38.2753 40.7709 38.12 41.1414 37.8462 41.4152C37.5723 41.689 37.2019 41.8444 36.8147 41.8477C36.4287 41.8511 36.0569 41.7033 35.7787 41.436L34.0779 39.7352C34.0158 39.6731 34.0158 39.5725 34.0779 39.5105C34.1399 39.4484 34.2405 39.4484 34.3026 39.5105L36.0067 41.2146L36.0066 41.2146L36.0129 41.2207C36.2314 41.4318 36.5242 41.5486 36.8281 41.546C37.132 41.5433 37.4226 41.4215 37.6375 41.2066C37.8524 40.9917 37.9743 40.701 37.9769 40.3971ZM37.9127 39.2979L37.6119 38.9971L37.9127 39.2979Z" fill="#933EFF" stroke="#933EFF"/>
<path d="M42.5 32.7619L34 28L25 32.7619V42.7619L34 48L43 42.7619V38" stroke="#933EFF" stroke-width="1.4" stroke-linecap="round" stroke-linejoin="round"/>
</g>
<path d="M35.9577 27.4292L35.958 27.4289C36.2968 27.0903 36.7562 26.9 37.2352 26.9C37.7142 26.9 38.1736 27.0903 38.5123 27.4289C38.8509 27.7677 39.0411 28.227 39.0411 28.7059C39.0411 29.1849 38.8509 29.6443 38.5122 29.9831L36.5241 31.9711C36.4192 32.0761 36.2491 32.0761 36.1442 31.9711C36.0392 31.8662 36.0392 31.6961 36.1442 31.5912L38.1323 29.603L38.1323 29.6031L38.1384 29.5968C38.3695 29.3575 38.4974 29.037 38.4945 28.7044C38.4916 28.3717 38.3582 28.0535 38.1229 27.8182C37.8877 27.583 37.5694 27.4495 37.2368 27.4466C36.9041 27.4437 36.5836 27.5716 36.3443 27.8028L36.3442 27.8027L36.3385 27.8085L36.3372 27.8095L36.3369 27.8097C36.3366 27.8098 36.3357 27.8101 36.3345 27.8101C36.3333 27.8101 36.3325 27.8098 36.3322 27.8097L36.3318 27.8095L36.3306 27.8085L36.1442 27.622L35.9577 27.4356L35.6042 27.7891L35.9577 27.4356L35.9568 27.4345L35.9567 27.4344C35.9566 27.4342 35.9564 27.4335 35.9564 27.4324C35.9564 27.4313 35.9566 27.4306 35.9567 27.4305L35.9568 27.4303L35.9577 27.4292ZM31.9757 35.7596L31.9757 35.7596L31.9815 35.7538L31.9827 35.7528L31.9831 35.7526C31.9832 35.7525 31.9836 35.7524 31.984 35.7523C31.9844 35.7523 31.9849 35.7522 31.9854 35.7522C31.9866 35.7522 31.9874 35.7525 31.9878 35.7526L31.9881 35.7528L31.9893 35.7539L32.3622 36.1267L32.3632 36.1278L32.3632 36.128C32.3633 36.1281 32.3635 36.1288 32.3635 36.1299C32.3635 36.131 32.3633 36.1317 32.3632 36.1318L32.3632 36.132L32.3622 36.1331L32.3622 36.133L32.3557 36.1396C32.1891 36.3122 31.9898 36.4498 31.7694 36.5445C31.549 36.6391 31.312 36.689 31.0721 36.6911C30.8323 36.6931 30.5944 36.6474 30.3724 36.5566C30.1504 36.4658 29.9487 36.3316 29.7791 36.162L29.4317 36.5094L29.7791 36.162C29.6095 35.9924 29.4753 35.7907 29.3845 35.5687C29.2937 35.3467 29.248 35.1089 29.2501 34.869C29.2522 34.6292 29.302 34.3921 29.3967 34.1717C29.4913 33.9513 29.6289 33.752 29.8015 33.5854L29.8015 33.5854L29.8077 33.5793L31.7958 31.5912C31.9007 31.4862 32.0709 31.4862 32.1758 31.5912C32.2807 31.6961 32.2807 31.8662 32.1758 31.9711L30.1877 33.9593L30.1876 33.9592L30.1816 33.9655C29.9504 34.2048 29.8226 34.5253 29.8254 34.8579C29.8283 35.1906 29.9618 35.5089 30.197 35.7441C30.4323 35.9794 30.7505 36.1128 31.0832 36.1157C31.4159 36.1186 31.7364 35.9907 31.9757 35.7596ZM30.1823 29.5961L30.1823 29.5961L30.188 29.6019L30.1891 29.6031L30.1893 29.6035C30.1894 29.6038 30.1897 29.6046 30.1897 29.6058C30.1897 29.6071 30.1894 29.6079 30.1893 29.6082L30.1891 29.6085L30.188 29.6098L29.8152 29.9826L29.8141 29.9836L29.8139 29.9837C29.8138 29.9837 29.8131 29.984 29.812 29.984C29.8111 29.984 29.8105 29.9838 29.8102 29.9837C29.4952 29.6428 29.3233 29.1934 29.3308 28.7288C29.3383 28.2598 29.528 27.812 29.8598 27.4803C30.1915 27.1486 30.6394 26.959 31.1085 26.9516C31.5751 26.9442 32.0264 27.1177 32.3678 27.4356L34.35 29.4172C34.4549 29.522 34.4549 29.6921 34.35 29.7969C34.2451 29.9018 34.0751 29.9018 33.9702 29.7969L31.9827 27.8082L31.9828 27.8081L31.9764 27.802C31.7371 27.5709 31.4166 27.443 31.0839 27.4459C30.7513 27.4488 30.433 27.5822 30.1978 27.8174C29.9625 28.0527 29.8291 28.3709 29.8262 28.7036C29.8233 29.0363 29.9512 29.3568 30.1823 29.5961Z" fill="#933EFF" stroke="#933EFF" stroke-linejoin="round"/>
<path d="M38.2003 33.9034L38.2004 33.9034L38.1946 33.8976L38.1935 33.8964L38.1933 33.896C38.1932 33.8957 38.193 33.8949 38.193 33.8937C38.193 33.8925 38.1932 33.8916 38.1934 33.8913L38.1935 33.891L38.1946 33.8897L38.5675 33.5169L38.5686 33.5159L38.5687 33.5159C38.5689 33.5158 38.5696 33.5156 38.5707 33.5156C38.5717 33.5156 38.5724 33.5158 38.5726 33.5159L38.5727 33.5159L38.5731 33.5163C38.899 33.8564 39.0792 34.3105 39.0751 34.7817C39.071 35.2553 38.881 35.7084 38.5461 36.0433C38.2112 36.3782 37.7581 36.5682 37.2845 36.5723C36.8122 36.5764 36.3572 36.3954 36.0168 36.0682L34.0319 34.0833C33.927 33.9784 33.927 33.8082 34.0319 33.7033C34.1369 33.5984 34.307 33.5984 34.4119 33.7033L36.4 35.6914L36.4 35.6915L36.4062 35.6975C36.6455 35.9287 36.966 36.0565 37.2987 36.0536C37.6314 36.0508 37.9496 35.9173 38.1849 35.6821C38.4201 35.4468 38.5535 35.1286 38.5564 34.7959C38.5593 34.4632 38.4314 34.1427 38.2003 33.9034Z" fill="#933EFF" stroke="#933EFF"/>
<path d="M43.9167 25.8889L34 20.3333L23.5 25.8889V37.5555L34 43.6666L44.5 37.5555V32" stroke="#933EFF" stroke-width="1.4" stroke-linecap="round" stroke-linejoin="round"/>
<defs>
<filter id="filter0_b_26_440" x="-14" y="-16" width="96" height="96" filterUnits="userSpaceOnUse" color-interpolation-filters="sRGB">
<feFlood flood-opacity="0" result="BackgroundImageFix"/>
<feGaussianBlur in="BackgroundImageFix" stdDeviation="8"/>
<feComposite in2="SourceAlpha" operator="in" result="effect1_backgroundBlur_26_440"/>
<feBlend mode="normal" in="SourceGraphic" in2="effect1_backgroundBlur_26_440" result="shape"/>
</filter>
<filter id="filter1_f_26_440" x="-2" y="2" width="72" height="72" filterUnits="userSpaceOnUse" color-interpolation-filters="sRGB">
<feFlood flood-opacity="0" result="BackgroundImageFix"/>
<feBlend mode="normal" in="SourceGraphic" in2="BackgroundImageFix" result="shape"/>
<feGaussianBlur stdDeviation="12" result="effect1_foregroundBlur_26_440"/>
</filter>
<linearGradient id="paint0_linear_26_440" x1="9.5" y1="4.97559e-07" x2="44.5" y2="67" gradientUnits="userSpaceOnUse">
<stop stop-color="#080811"/>
<stop offset="1" stop-color="#111932"/>
</linearGradient>
</defs>
</svg>
