<svg xmlns="http://www.w3.org/2000/svg" width="18" height="18" viewBox="0 0 18 18" fill="none">
  <path d="M5.20499 3.74977C5.20479 4.1476 5.04656 4.52905 4.76512 4.81021C4.48367 5.09138 4.10206 5.24922 3.70424 5.24902C3.30641 5.24882 2.92496 5.0906 2.6438 4.80915C2.36263 4.52771 2.20479 4.1461 2.20499 3.74827C2.20519 3.35045 2.36341 2.969 2.64486 2.68783C2.9263 2.40667 3.30791 2.24882 3.70574 2.24902C4.10356 2.24922 4.48501 2.40745 4.76618 2.68889C5.04734 2.97034 5.20519 3.35195 5.20499 3.74977ZM5.24999 6.35977H2.24999V15.7498H5.24999V6.35977ZM9.98999 6.35977H7.00499V15.7498H9.95999V10.8223C9.95999 8.07727 13.5375 7.82227 13.5375 10.8223V15.7498H16.5V9.80227C16.5 5.17477 11.205 5.34727 9.95999 7.61977L9.98999 6.35977Z" fill="#C2CDE7"/>
</svg>