<svg xmlns="http://www.w3.org/2000/svg" width="24" height="24" viewBox="0 0 24 24" fill="none">
  <path d="M3.27273 0H5.45455C9.53445 7.47983 9.53445 16.5202 5.45455 24H3.27273C7.35263 16.5202 7.35263 7.47983 3.27273 0Z" fill="#C2CDE7"/>
  <path d="M20.7273 0H18.5455C14.4656 7.47983 14.4656 16.5202 18.5455 24H20.7273C16.6474 16.5202 16.6474 7.47983 20.7273 0Z" fill="#C2CDE7"/>
  <path d="M9.53699e-08 3.27273L0 5.45455C7.47983 9.53445 16.5202 9.53445 24 5.45455V3.27273C16.5202 7.35263 7.47983 7.35263 9.53699e-08 3.27273Z" fill="#C2CDE7"/>
  <path d="M9.53699e-08 20.7273L0 18.5455C7.47983 14.4655 16.5202 14.4655 24 18.5455V20.7273C16.5202 16.6474 7.47983 16.6474 9.53699e-08 20.7273Z" fill="#C2CDE7"/>
</svg>