<svg width="70" height="73" viewBox="0 0 70 73" fill="none" xmlns="http://www.w3.org/2000/svg">
<g filter="url(#filter0_b_26_321)">
<circle cx="35" cy="32" r="32" fill="url(#paint0_linear_26_321)" fill-opacity="0.5"/>
<circle cx="35" cy="32" r="31.5" stroke="#26293C"/>
</g>
<g filter="url(#filter1_f_26_321)">
<path d="M27.728 42.137C26.183 40.591 25.41 39.819 25.123 38.816C24.835 37.813 25.081 36.748 25.573 34.619L25.856 33.391C26.269 31.599 26.476 30.703 27.089 30.089C27.703 29.476 28.599 29.269 30.391 28.856L31.619 28.572C33.749 28.081 34.813 27.835 35.816 28.122C36.819 28.41 37.591 29.183 39.136 30.728L40.966 32.558C43.657 35.248 45 36.592 45 38.262C45 39.933 43.655 41.277 40.966 43.966C38.277 46.657 36.933 48 35.262 48C33.592 48 32.247 46.655 29.558 43.966L27.728 42.137Z" stroke="#4AFA9B" stroke-width="1.8"/>
<path d="M38.5619 41.5621C39.0786 41.0436 39.1483 40.2752 38.7173 39.8433C38.2863 39.4123 37.5171 39.4821 36.9995 39.9997C36.4829 40.5172 35.7136 40.587 35.2826 40.156C34.8516 39.725 34.9214 38.9557 35.4389 38.439M35.4389 38.439L35.1263 38.1263M35.4389 38.439C35.7312 38.1458 36.104 37.9974 36.4511 38M38.8737 41.8739L38.561 41.5612C38.2077 41.9154 37.7352 42.0602 37.3343 41.9772" stroke="#4AFA9B" stroke-width="1.2" stroke-linecap="round"/>
<path d="M33.0212 36.2932C33.8023 35.5122 33.8023 34.2459 33.0212 33.4648C32.2402 32.6838 30.9738 32.6838 30.1928 33.4648C29.4117 34.2459 29.4117 35.5122 30.1928 36.2932C30.9738 37.0743 32.2402 37.0743 33.0212 36.2932Z" stroke="#4AFA9B" stroke-width="1.5"/>
</g>
<path d="M26.516 36.8265C24.7135 35.0228 23.8117 34.1221 23.4768 32.952C23.1408 31.7818 23.4278 30.5393 24.0018 28.0555L24.332 26.6228C24.8138 24.5321 25.0553 23.4868 25.7705 22.7705C26.4868 22.0553 27.5322 21.8138 29.6228 21.332L31.0555 21.0006C33.5405 20.4278 34.7818 20.1408 35.952 20.4756C37.1222 20.8116 38.0228 21.7135 39.8253 23.516L41.9603 25.651C45.0998 28.7893 46.6667 30.3573 46.6667 32.3056C46.6667 34.2551 45.0975 35.8231 41.9603 38.9603C38.8232 42.0998 37.2552 43.6666 35.3057 43.6666C33.3573 43.6666 31.7882 42.0975 28.651 38.9603L26.516 36.8265Z" stroke="#4AFA9B" stroke-width="1.8"/>
<path d="M39.1556 36.1558C39.7584 35.5509 39.8398 34.6544 39.3369 34.1505C38.8341 33.6477 37.9366 33.7291 37.3328 34.3329C36.73 34.9368 35.8325 35.0182 35.3297 34.5153C34.8269 34.0125 34.9083 33.115 35.5121 32.5122M35.5121 32.5122L35.1473 32.1474M35.5121 32.5122C35.8532 32.1701 36.288 31.9969 36.6929 32M39.5193 36.5195L39.1545 36.1547C38.7424 36.5679 38.1911 36.7369 37.7233 36.6401" stroke="#4AFA9B" stroke-width="1.2" stroke-linecap="round"/>
<path d="M32.6914 30.0087C33.6026 29.0975 33.6026 27.6201 32.6914 26.7088C31.7802 25.7976 30.3028 25.7976 29.3916 26.7088C28.4804 27.6201 28.4804 29.0975 29.3916 30.0087C30.3028 30.9199 31.7802 30.9199 32.6914 30.0087Z" stroke="#4AFA9B" stroke-width="1.5"/>
<defs>
<filter id="filter0_b_26_321" x="-13" y="-16" width="96" height="96" filterUnits="userSpaceOnUse" color-interpolation-filters="sRGB">
<feFlood flood-opacity="0" result="BackgroundImageFix"/>
<feGaussianBlur in="BackgroundImageFix" stdDeviation="8"/>
<feComposite in2="SourceAlpha" operator="in" result="effect1_backgroundBlur_26_321"/>
<feBlend mode="normal" in="SourceGraphic" in2="effect1_backgroundBlur_26_321" result="shape"/>
</filter>
<filter id="filter1_f_26_321" x="-1" y="2" width="72" height="72" filterUnits="userSpaceOnUse" color-interpolation-filters="sRGB">
<feFlood flood-opacity="0" result="BackgroundImageFix"/>
<feBlend mode="normal" in="SourceGraphic" in2="BackgroundImageFix" result="shape"/>
<feGaussianBlur stdDeviation="12" result="effect1_foregroundBlur_26_321"/>
</filter>
<linearGradient id="paint0_linear_26_321" x1="10.5" y1="4.97559e-07" x2="45.5" y2="67" gradientUnits="userSpaceOnUse">
<stop stop-color="#080811"/>
<stop offset="1" stop-color="#111932"/>
</linearGradient>
</defs>
</svg>
