<svg xmlns="http://www.w3.org/2000/svg" width="82" height="78" viewBox="0 0 82 78" fill="none">
  <path opacity="0.24" d="M82 0.772277L80.109 15.0165C75.4102 14.6733 71.8574 15.5886 69.4507 17.7624C67.044 19.9362 65.4969 22.9109 64.8092 26.6865C64.1216 30.462 63.9497 34.6381 64.2935 39.2145H82V78H48.3061V34.066C48.3061 22.0528 51.2285 13.0143 57.0734 6.9505C63.0328 0.772278 71.3417 -1.28713 82 0.772277ZM33.6939 0.772277L31.8029 15.0165C27.1041 14.6733 23.5514 15.5886 21.1447 17.7624C18.7379 19.9362 17.1908 22.9109 16.5031 26.6865C15.8155 30.462 15.6436 34.6381 15.9874 39.2145H33.6939V78H0V34.066C0 22.0528 2.92243 13.0143 8.76729 6.9505C14.7268 0.772278 23.0356 -1.28713 33.6939 0.772277Z" fill="#1F293F"/>
</svg>