<svg xmlns="http://www.w3.org/2000/svg" width="124" height="20" viewBox="0 0 124 20" fill="none">
  <path d="M30.2569 14.2763L31.2358 13.1121C32.122 13.8795 33.0059 14.3143 34.1558 14.3143C35.1608 14.3143 35.7952 13.851 35.7952 13.1501V13.1239C35.7952 12.4634 35.4246 12.107 33.7068 11.6984C31.7371 11.2232 30.6181 10.6411 30.6181 8.93517V8.90904C30.6181 7.32429 31.9391 6.22662 33.778 6.22662C35.0001 6.20211 36.1907 6.61499 37.1352 7.39082L36.2633 8.63343C35.4317 8.01331 34.6001 7.68306 33.7519 7.68306C32.8015 7.68306 32.2456 8.1725 32.2456 8.78074V8.80687C32.2456 9.51965 32.6685 9.83803 34.4386 10.2609C36.3939 10.7361 37.4132 11.4489 37.4132 12.9695V12.9956C37.4132 14.7277 36.0518 15.7588 34.1083 15.7588C32.6844 15.7628 31.3106 15.234 30.2569 14.2763Z" fill="#C2CDE7"/>
  <path d="M38.4872 13.089V8.64844H40.0862V12.6139C40.0862 13.6973 40.6279 14.3198 41.5806 14.3198C42.5334 14.3198 43.1535 13.6711 43.1535 12.5853V8.64844H44.7525V15.6265H43.1535V14.9138C42.8762 15.2098 42.5368 15.4408 42.1598 15.5903C41.7827 15.7398 41.3772 15.8041 40.9724 15.7786C39.3995 15.7715 38.4872 14.7071 38.4872 13.089Z" fill="#C2CDE7"/>
  <path d="M46.4631 8.6475H48.0621V9.81171C48.4969 8.7663 49.3047 8.46218 50.5331 8.51683V9.94238H50.4404C49.0386 9.94238 48.0645 10.8785 48.0645 12.9788V15.6256H46.4655L46.4631 8.6475Z" fill="#C2CDE7"/>
  <path d="M51.1036 8.64844H52.8214L54.6984 13.5048L56.5992 8.64844H58.2766L55.4254 15.6812H53.9856L51.1036 8.64844Z" fill="#C2CDE7"/>
  <path d="M58.2784 12.1623V12.1361C58.2784 10.1404 59.704 8.50098 61.6879 8.50098C63.9094 8.50098 65.0332 10.2449 65.0332 12.2549C65.0332 12.3999 65.0189 12.5448 65.0071 12.704H59.8774C60.0485 13.8397 60.8563 14.4764 61.8875 14.4764C62.2452 14.4794 62.5995 14.4066 62.9271 14.2629C63.2547 14.1192 63.5482 13.9077 63.7882 13.6425L64.7148 14.4693C64.3724 14.8921 63.9369 15.23 63.4423 15.4566C62.9478 15.6833 62.4075 15.7926 61.8637 15.7761C59.8394 15.7832 58.2784 14.3172 58.2784 12.1623ZM63.4461 11.6467C63.3415 10.6156 62.7333 9.81011 61.676 9.81011C60.6971 9.81011 60.0129 10.5633 59.8656 11.6467H63.4461Z" fill="#C2CDE7"/>
  <path d="M73.5079 6.37402H75.24L78.0555 11.0926L80.8709 6.37402H82.5935V15.6259H80.9778V8.98992L78.0555 13.6966H78.0032L75.1093 9.01605V15.6259H73.5103L73.5079 6.37402Z" fill="#C2CDE7"/>
  <path d="M83.7482 12.1759V12.1498C83.7447 11.163 84.1334 10.2153 84.8287 9.51505C85.524 8.81483 86.469 8.4195 87.4558 8.41604C88.4426 8.41257 89.3904 8.80125 90.0906 9.49657C90.7908 10.1919 91.1861 11.1369 91.1896 12.1237V12.1498C91.1878 12.6355 91.0892 13.1161 90.8993 13.5632C90.7094 14.0103 90.4322 14.4149 90.0839 14.7535C89.7356 15.0921 89.3232 15.3577 88.8709 15.5348C88.4186 15.712 87.9355 15.797 87.4499 15.785C86.9682 15.7973 86.4889 15.7131 86.0403 15.5373C85.5917 15.3615 85.1828 15.0976 84.8378 14.7612C84.4928 14.4249 84.2186 14.0228 84.0315 13.5788C83.8444 13.1348 83.748 12.6578 83.7482 12.1759ZM89.5906 12.1759V12.1498C89.5906 10.9215 88.7044 9.90218 87.4523 9.90218C86.2002 9.90218 85.3496 10.9072 85.3496 12.1237V12.1498C85.3496 13.3663 86.2358 14.3974 87.4879 14.3974C88.7709 14.3974 89.5906 13.3782 89.5906 12.1759Z" fill="#C2CDE7"/>
  <path d="M100.135 5.97754H101.734V11.7392L104.628 8.65046H106.572L103.797 11.5016L106.664 15.6381H104.814L102.711 12.6254L101.732 13.6423V15.6381H100.133L100.135 5.97754Z" fill="#C2CDE7"/>
  <path d="M106.536 12.1623V12.1361C106.536 10.1404 107.962 8.50098 109.946 8.50098C112.167 8.50098 113.291 10.2449 113.291 12.2549C113.291 12.3999 113.277 12.5448 113.265 12.704H108.135C108.306 13.8397 109.114 14.4764 110.145 14.4764C110.503 14.4796 110.857 14.4069 111.185 14.2631C111.513 14.1194 111.806 13.9078 112.046 13.6425L112.973 14.4693C112.63 14.8921 112.195 15.23 111.7 15.4566C111.205 15.6833 110.665 15.7926 110.121 15.7761C108.095 15.7832 106.536 14.3172 106.536 12.1623ZM111.704 11.6467C111.599 10.6156 110.991 9.81011 109.934 9.81011C108.955 9.81011 108.271 10.5633 108.123 11.6467H111.704Z" fill="#C2CDE7"/>
  <path d="M70.6504 8.64844L68.7188 13.4074L66.8014 8.64844H65.1359L67.8848 15.465L66.4498 19.0004H68.1153L72.3159 8.64844H70.6504Z" fill="#C2CDE7"/>
  <path d="M122.35 8.76722C122.184 8.76726 122.02 8.80979 121.875 8.89077C121.723 8.97185 121.598 9.09471 121.514 9.24478C121.433 9.39013 121.389 9.5534 121.386 9.71997C121.386 9.88657 121.429 10.0503 121.512 10.1952C121.594 10.3446 121.718 10.4674 121.868 10.5492C122.012 10.6326 122.176 10.6765 122.343 10.6765C122.51 10.6765 122.674 10.6326 122.818 10.5492C122.968 10.4671 123.09 10.3443 123.172 10.1952C123.254 10.0501 123.297 9.88647 123.297 9.71997C123.297 9.55347 123.254 9.38979 123.172 9.24478C123.09 9.09421 122.965 8.97111 122.814 8.89077C122.668 8.81027 122.505 8.76778 122.338 8.76722M122.338 8.57715C122.536 8.57851 122.73 8.63002 122.902 8.72683C123.084 8.82191 123.233 8.96915 123.332 9.14975C123.433 9.32368 123.486 9.52122 123.486 9.72234C123.486 9.92347 123.433 10.121 123.332 10.2949C123.233 10.474 123.085 10.6214 122.906 10.7202C122.732 10.8185 122.536 10.8701 122.336 10.8699C122.136 10.8691 121.939 10.8176 121.763 10.7202C121.584 10.6216 121.437 10.4741 121.338 10.2949C121.241 10.1216 121.189 9.92606 121.188 9.7271C121.188 9.52513 121.241 9.32668 121.343 9.15212C121.441 8.9723 121.59 8.82524 121.771 8.72921C121.944 8.63296 122.138 8.58151 122.336 8.57952" fill="#C2CDE7"/>
  <path d="M121.864 9.08965H122.436C122.572 9.08218 122.705 9.12825 122.807 9.21795C122.878 9.2928 122.916 9.39277 122.914 9.49594C122.917 9.58625 122.888 9.67479 122.832 9.74603C122.777 9.81727 122.698 9.86668 122.61 9.88559L122.956 10.3608H122.688L122.372 9.91172H122.089V10.3608H121.852L121.864 9.08965ZM122.42 9.7169C122.581 9.7169 122.683 9.63136 122.683 9.50306C122.683 9.36526 122.583 9.28923 122.417 9.28923H122.089V9.7169H122.42Z" fill="#C2CDE7"/>
  <path d="M118.907 8.64844L116.976 13.4074L115.056 8.64844H113.393L116.142 15.465L114.707 19.0004H116.372L120.573 8.64844H118.907Z" fill="#C2CDE7"/>
  <path d="M98.5128 11.1852V15.6259H96.9138V11.6604C96.9067 10.577 96.3745 9.95451 95.4241 9.95451C94.4737 9.95451 93.8512 10.6031 93.8512 11.6866V15.6259H92.2404V8.64775H93.8394V9.36053C94.1167 9.06451 94.456 8.83347 94.8331 8.68396C95.2102 8.53444 95.6156 8.47015 96.0205 8.49569C97.5933 8.50045 98.5128 9.55773 98.5128 11.1852Z" fill="#C2CDE7"/>
  <path d="M23.3644 10.8449C23.1171 10.8463 22.8707 10.8787 22.6307 10.9414C22.1832 9.09629 21.2387 7.42507 19.9098 6.12713C18.5808 4.8292 16.9236 3.95936 15.136 3.62141C14.9729 3.59109 14.8256 3.56905 14.66 3.547C14.6863 2.60995 14.7283 1.52684 16.0458 0.551204L15.8381 0C15.8381 0 13.2741 0.826806 12.9769 3.13359C12.8481 2.50798 11.6621 1.72527 11.0625 1.57644L10.7679 2.07528C11.0298 2.241 11.2533 2.46571 11.422 2.73313C11.5907 3.00055 11.7006 3.30398 11.7436 3.62141C9.95574 3.95867 8.29823 4.82788 6.96884 6.12533C5.63944 7.42278 4.6943 9.09368 4.24618 10.9386C3.77669 10.8156 3.28612 10.8107 2.81445 10.9241C2.34278 11.0375 1.90335 11.2661 1.53197 11.5912C1.1606 11.9164 0.867791 12.3289 0.677414 12.7952C0.487037 13.2615 0.404478 13.7683 0.436467 14.2744C0.468455 14.7804 0.614085 15.2714 0.861488 15.7073C1.10889 16.1431 1.45106 16.5116 1.86012 16.7826C2.26918 17.0536 2.73354 17.2194 3.21537 17.2666C3.6972 17.3138 4.18285 17.2411 4.63275 17.0543C4.89445 17.7399 5.22877 18.3925 5.62942 19L8.17765 17.2003L8.15661 17.17C7.4455 16.1199 7.04409 14.8741 7.00215 13.5872C6.92589 12.121 7.26512 10.663 8.16187 9.80592C10.0027 8.15231 12.0118 8.91021 13.2688 10.4867H13.6081C14.8651 8.91021 16.8716 8.16057 18.715 9.80592C19.6091 10.663 19.951 12.121 19.8748 13.5872C19.8328 14.8741 19.4314 16.1199 18.7203 17.17L18.6993 17.2003L21.2475 19C21.6481 18.3925 21.9825 17.7399 22.2442 17.0543C22.6641 17.2262 23.1151 17.299 23.565 17.2676C24.0149 17.2362 24.4527 17.1012 24.8472 16.8724C25.2416 16.6435 25.5832 16.3263 25.8474 15.9435C26.1117 15.5606 26.2922 15.1214 26.3761 14.6571C26.46 14.1928 26.4453 13.7148 26.333 13.2572C26.2207 12.7996 26.0135 12.3735 25.7262 12.0093C25.4389 11.645 25.0786 11.3516 24.6709 11.1499C24.2631 10.9482 23.8179 10.8431 23.3671 10.8422L23.3644 10.8449ZM3.45199 15.012C3.22016 14.9989 3.00194 14.8932 2.84225 14.7166C2.68256 14.54 2.59356 14.3059 2.59356 14.0626C2.59356 13.8193 2.68256 13.5852 2.84225 13.4086C3.00194 13.232 3.22016 13.1262 3.45199 13.1131C3.63308 13.1143 3.80976 13.1718 3.95953 13.2785C3.96736 13.7769 3.99984 14.2746 4.05683 14.7695C3.89055 14.9256 3.67521 15.0119 3.45199 15.012ZM23.4249 15.012C23.2017 15.0119 22.9863 14.9256 22.8201 14.7695C22.8771 14.2746 22.9095 13.7769 22.9174 13.2785C23.0536 13.1817 23.2125 13.1257 23.3769 13.1166C23.5412 13.1074 23.7049 13.1454 23.8502 13.2265C23.9954 13.3076 24.1169 13.4287 24.2013 13.5768C24.2858 13.7248 24.3301 13.8942 24.3295 14.0667C24.3292 14.1912 24.3055 14.3144 24.2597 14.4293C24.2139 14.5442 24.147 14.6485 24.0627 14.7363C23.9785 14.8241 23.8786 14.8936 23.7687 14.9409C23.6588 14.9882 23.5411 15.0124 23.4223 15.012H23.4249Z" fill="#C2CDE7"/>
</svg>