<svg xmlns="http://www.w3.org/2000/svg" width="154" height="18" viewBox="0 0 154 18" fill="none">
  <g clip-path="url(#clip0_0_1593)">
    <path d="M7.3452 17.7221L0.33313 0.277832H3.92505L9.0578 13.2916L14.2209 0.277832H17.8128L10.7653 17.7221H7.3452Z" fill="#C2CDE7"/>
    <path d="M20.9046 7.46657H31.4429C31.1195 6.25916 30.4729 5.26393 29.508 4.48594C28.5431 3.70794 27.4417 3.31894 26.2091 3.31894C24.8855 3.31894 23.7488 3.70289 22.8091 4.47078C21.8695 5.23867 21.2329 6.23895 20.9096 7.47162M19.8437 15.393C18.1108 13.6501 17.247 11.5334 17.247 9.04277C17.247 6.55217 18.1007 4.42531 19.8133 2.65714C21.5209 0.888969 23.6225 0.00488281 26.108 0.00488281C28.5936 0.00488281 30.5487 0.803086 32.3168 2.39444C34.085 3.9858 35.0146 6.0874 35.1106 8.69419C35.1106 9.27516 35.0752 9.80056 35.0045 10.2653H20.9096C21.0511 11.5687 21.6017 12.6296 22.5666 13.4582C23.5316 14.2816 24.7137 14.6959 26.108 14.6959C27.8307 14.6959 29.2251 14.1149 30.2961 12.953L34.378 12.9883C33.6101 14.4988 32.4937 15.7164 31.0286 16.6358C29.5635 17.5553 27.957 18.015 26.2141 18.015C23.7033 18.015 21.5815 17.141 19.8487 15.3981L19.8437 15.393Z" fill="#C2CDE7"/>
    <path d="M37.4193 17.722V8.61848C37.4193 5.82477 38.0861 3.72822 39.4249 2.31874C40.7637 0.909249 42.5369 0.207031 44.7446 0.207031H45.0932V3.52109H44.7446C42.1378 3.52109 40.8394 5.21854 40.8394 8.61343V17.717H37.4193V17.722Z" fill="#C2CDE7"/>
    <path d="M55.323 3.31406C53.7165 3.31406 52.3828 3.85967 51.3118 4.95594C50.2408 6.04715 49.7053 7.39601 49.7053 9.00253C49.7053 10.609 50.2458 11.9276 51.3269 13.034C52.408 14.1403 53.7417 14.691 55.323 14.691C56.9042 14.691 58.2228 14.1454 59.2837 13.0491C60.3446 11.9579 60.87 10.609 60.87 9.00253C60.87 7.39601 60.3396 6.04715 59.2837 4.95594C58.2279 3.86472 56.9042 3.31406 55.323 3.31406ZM48.9222 2.63205C50.6803 0.873983 52.8021 0 55.2876 0C57.7732 0 59.9 0.879035 61.6531 2.63205C63.4111 4.39012 64.2851 6.51193 64.2851 8.99747C64.2851 11.483 63.4061 13.6099 61.6531 15.3629C59.895 17.121 57.7732 17.9949 55.2876 17.9949C52.8021 17.9949 50.6752 17.1159 48.9222 15.3629C47.1641 13.6048 46.2902 11.483 46.2902 8.99747C46.2902 6.51193 47.1692 4.38507 48.9222 2.63205Z" fill="#C2CDE7"/>
    <path d="M81.9928 17.7221H78.0877L73.5864 11.4779L69.0852 17.7221H65.1447L71.6313 8.65392L65.665 0.277832H69.5398L73.5511 5.86021L77.633 0.277832H81.5028L75.5415 8.65392L81.9928 17.7221Z" fill="#C2CDE7"/>
    <path d="M85.9582 17.6667V11.8267H82.831V9.82616H85.9582V9.20477L86.0289 7.07791C86.2158 4.96116 86.8776 3.29907 88.0194 2.08661C89.1611 0.879204 90.6817 0.176986 92.5913 -0.00488281V2.12198C91.3839 2.32911 90.3887 2.85451 89.6107 3.69312C88.8327 4.53174 88.3831 5.65832 88.2669 7.07791L88.1962 9.20477V9.82616H93.6977V11.8267H88.1962V17.6667H85.9632H85.9582Z" fill="#C2CDE7"/>
    <path d="M99.4468 0.282715H97.2138V17.727H99.4468V0.282715Z" fill="#C2CDE7"/>
    <path d="M116.992 4.11732C115.699 2.79371 114.102 2.12686 112.193 2.12686C110.283 2.12686 108.677 2.78866 107.363 4.11732C106.05 5.44092 105.393 7.07269 105.393 9.00253C105.393 10.9324 106.055 12.5338 107.383 13.8675C108.707 15.2063 110.313 15.8731 112.198 15.8731C114.082 15.8731 115.674 15.2113 116.977 13.8827C118.28 12.5591 118.932 10.9273 118.932 8.99747C118.932 7.06764 118.285 5.44092 116.997 4.11227M105.797 2.63205C107.555 0.873983 109.677 0 112.162 0C114.648 0 116.775 0.879035 118.528 2.63205C120.286 4.39012 121.16 6.51193 121.16 8.99747C121.16 11.483 120.281 13.6099 118.528 15.3629C116.77 17.121 114.648 17.9949 112.162 17.9949C109.677 17.9949 107.55 17.1159 105.797 15.3629C104.039 13.6048 103.165 11.483 103.165 8.99747C103.165 6.51193 104.044 4.38507 105.797 2.63205Z" fill="#C2CDE7"/>
    <path d="M138.65 4.11732C137.356 2.79371 135.76 2.12686 133.85 2.12686C131.941 2.12686 130.334 2.78866 129.021 4.11732C127.707 5.44092 127.05 7.07269 127.05 9.00253C127.05 10.9324 127.712 12.5338 129.041 13.8675C130.365 15.2063 131.971 15.8731 133.855 15.8731C135.74 15.8731 137.331 15.2113 138.635 13.8827C139.938 12.5591 140.59 10.9273 140.59 8.99747C140.59 7.06764 139.943 5.44092 138.655 4.11227M127.455 2.63205C129.213 0.873983 131.335 0 133.82 0C136.306 0 138.432 0.879035 140.185 2.63205C141.944 4.39012 142.818 6.51193 142.818 8.99747C142.818 11.483 141.938 13.6099 140.185 15.3629C138.427 17.121 136.306 17.9949 133.82 17.9949C131.335 17.9949 129.208 17.1159 127.455 15.3629C125.697 13.6048 124.823 11.483 124.823 8.99747C124.823 6.51193 125.702 4.38507 127.455 2.63205Z" fill="#C2CDE7"/>
    <path d="M145.454 17.7223V8.649C145.454 5.83508 146.101 3.71832 147.389 2.29873C148.682 0.879144 150.42 0.171875 152.603 0.171875C152.835 0.171875 153.012 0.181979 153.128 0.207238V2.3341C153.012 2.30884 152.835 2.29873 152.603 2.29873C151.092 2.29873 149.895 2.83424 149.011 3.90525C148.127 4.97625 147.687 6.55751 147.687 8.649V17.7223H145.454Z" fill="#C2CDE7"/>
    <path d="M151.219 15.7824H151.598C151.78 15.7824 151.901 15.7571 151.967 15.7016C152.032 15.646 152.068 15.5753 152.068 15.4894C152.068 15.4338 152.052 15.3833 152.022 15.3378C151.992 15.2924 151.946 15.257 151.891 15.2368C151.835 15.2166 151.729 15.2014 151.578 15.2014H151.224V15.7774L151.219 15.7824ZM150.906 16.8635V14.9387H151.567C151.795 14.9387 151.956 14.9589 152.057 14.9943C152.159 15.0297 152.239 15.0903 152.3 15.1812C152.361 15.2671 152.391 15.3631 152.391 15.4641C152.391 15.6056 152.34 15.7268 152.239 15.8329C152.138 15.939 152.007 15.9946 151.84 16.0097C151.906 16.0401 151.962 16.0704 152.002 16.1108C152.078 16.1866 152.174 16.3129 152.285 16.4897L152.517 16.8686H152.138L151.967 16.5655C151.83 16.328 151.724 16.1765 151.638 16.1158C151.583 16.0704 151.497 16.0502 151.391 16.0502H151.209V16.8686H150.896L150.906 16.8635ZM151.694 14.383C151.441 14.383 151.199 14.4487 150.956 14.575C150.719 14.7013 150.532 14.8882 150.395 15.1257C150.259 15.3631 150.193 15.6157 150.193 15.8733C150.193 16.131 150.259 16.3785 150.39 16.616C150.522 16.8534 150.709 17.0353 150.946 17.1666C151.184 17.298 151.431 17.3637 151.689 17.3637C151.946 17.3637 152.194 17.298 152.431 17.1666C152.669 17.0353 152.856 16.8484 152.982 16.616C153.113 16.3785 153.179 16.131 153.179 15.8733C153.179 15.6157 153.113 15.3631 152.977 15.1257C152.846 14.8882 152.659 14.7013 152.416 14.575C152.179 14.4487 151.931 14.383 151.684 14.383H151.694ZM151.694 14.085C151.992 14.085 152.29 14.1607 152.573 14.3173C152.861 14.4689 153.083 14.6912 153.24 14.9792C153.401 15.2671 153.477 15.5652 153.477 15.8784C153.477 16.1916 153.396 16.4846 153.24 16.7675C153.083 17.0504 152.861 17.2727 152.578 17.4293C152.295 17.5859 151.997 17.6668 151.689 17.6668C151.381 17.6668 151.082 17.5859 150.8 17.4293C150.517 17.2727 150.294 17.0504 150.138 16.7675C149.981 16.4846 149.9 16.1866 149.9 15.8784C149.9 15.5702 149.981 15.2671 150.143 14.9792C150.304 14.6912 150.527 14.4689 150.815 14.3173C151.103 14.1607 151.396 14.085 151.694 14.085Z" fill="#C2CDE7"/>
  </g>
  <defs>
    <clipPath id="clip0_0_1593">
      <rect width="153.149" height="18" fill="white" transform="translate(0.33313)"/>
    </clipPath>
  </defs>
</svg>