<svg xmlns="http://www.w3.org/2000/svg" width="163" height="18" viewBox="0 0 163 18" fill="none">
  <path d="M0.427381 0.491314C0.784701 -0.223326 1.678 -0.0446636 2.30331 0.312656C6.59115 2.09926 10.879 4.06451 15.0775 5.94044C16.1495 6.20843 15.7028 7.54839 15.7028 8.35236C13.3802 8.35236 11.0577 8.35236 8.64575 8.35236C8.02043 8.35236 7.21646 8.44169 6.76981 7.90571C4.80455 6.11911 3.01795 4.15385 1.05269 2.27791C0.516712 1.83126 -0.108599 1.11662 0.427381 0.491314ZM28.2983 1.20596C29.281 0.759307 30.3529 0.312654 31.4249 0.0446637C32.1395 -0.133996 32.4075 0.580643 32.7649 1.02729C31.3356 3.17121 29.1917 4.77916 27.4944 6.65509C26.6904 7.36973 26.0651 8.44169 24.9038 8.35236C22.4026 8.35236 19.812 8.35236 17.3108 8.35236C17.1321 7.63772 16.7748 6.38709 17.6681 5.94044C21.1519 4.42183 24.7251 2.8139 28.2983 1.20596ZM49.2909 1.56327C49.4696 1.11662 50.0056 1.29529 50.4522 1.20596C53.9361 1.20596 57.4199 1.20596 60.9038 1.20596C63.1371 1.29529 65.013 2.90322 65.3703 5.13647C65.7276 7.63771 63.941 9.9603 61.4398 10.3176C61.3505 10.3176 61.2611 10.3176 61.2611 10.3176C58.3132 10.4069 55.276 10.2283 52.3281 10.3176C51.7028 11.9256 52.4175 13.7122 51.9708 15.4094C51.2562 16.1241 50.2735 16.4814 49.2909 16.66C49.2909 13.8908 49.2909 11.2109 49.2909 8.44169C49.2909 8.08437 49.3802 7.45906 49.9162 7.54839C53.4894 7.45906 57.0626 7.54839 60.7252 7.54839C61.6185 7.54839 62.5118 6.92307 62.6011 5.94044C62.6904 4.95781 62.0651 4.06452 61.0825 3.97519C60.9931 3.97519 60.9038 3.97519 60.8145 3.97519C57.0626 3.88586 53.3108 4.06452 49.5589 3.88586C49.2016 3.17122 49.2016 2.36724 49.2909 1.56327ZM81.3604 16.66C81.3604 11.4789 81.2711 6.3871 81.3604 1.20596C86.7202 1.20596 92.08 1.20596 97.5291 1.20596C97.3505 2.18859 96.8145 3.17122 96.0999 3.88586C92.1693 4.06452 88.1495 3.88586 84.1296 3.97519C84.1296 5.13648 84.1296 6.3871 84.1296 7.54839C87.9708 7.54839 91.9013 7.54839 95.7425 7.54839C95.8319 8.44169 95.8319 9.42432 95.7425 10.3176C91.812 10.3176 87.9708 10.3176 84.0403 10.3176V13.8908C87.7922 13.8908 91.544 13.8908 95.2959 13.8908C96.7252 13.8015 96.9038 15.4988 97.6185 16.3921C97.2611 16.5707 96.8145 16.7494 96.4572 16.66C91.3654 16.66 86.2735 16.66 81.3604 16.66ZM113.43 1.29529C113.787 0.848635 114.234 1.47395 114.591 1.65261C118.79 4.86849 122.988 8.08437 127.187 11.3002C127.276 8.44169 127.097 5.58313 127.276 2.63524C127.991 1.9206 128.884 1.38461 129.867 1.02729C130.045 1.6526 130.045 2.27791 130.045 2.90322C130.045 7.36972 130.045 11.7469 130.045 16.1241C130.224 16.8387 129.331 16.5707 129.063 16.3027C124.775 12.9975 120.576 9.78163 116.288 6.47642C116.199 9.33498 116.378 12.2829 116.199 15.1414C115.484 15.9454 114.591 16.3921 113.519 16.5707C113.519 12.0149 113.519 7.36973 113.519 2.81389C113.43 2.36724 113.43 1.83127 113.43 1.29529ZM146.125 7.10174C147.018 3.61787 150.145 1.20596 153.718 1.20596C156.487 1.29529 159.256 1.11663 161.936 1.29529C161.847 2.27792 161.4 3.17122 160.685 3.88586C158.184 4.15385 155.683 3.79653 153.182 4.06452C151.038 4.33251 149.341 5.85112 148.805 7.90571C148.269 10.5856 149.966 13.1762 152.646 13.8015C152.824 13.8015 153.003 13.8908 153.182 13.8908C155.326 13.8908 157.47 13.8908 159.614 13.8908C159.614 12.7295 159.614 11.5682 159.614 10.3176C158.006 10.3176 156.398 10.3176 154.79 10.3176C154.075 10.4069 153.896 9.60297 153.539 9.15632C153.182 8.70967 152.824 8.1737 153.092 7.63772C155.683 7.45906 158.274 7.63772 160.864 7.54839C161.311 7.63772 161.936 7.36972 162.293 7.81637C162.383 10.7643 162.293 13.7122 162.293 16.5707C160.328 16.7494 158.363 16.5707 156.398 16.66C154.432 16.7494 152.199 16.928 150.323 15.9454C147.018 14.3375 145.231 10.6749 146.125 7.10174ZM6.59115 10.0496C7.12713 9.51364 7.84177 9.6923 8.55641 9.60297C10.879 9.60297 13.2909 9.60297 15.6135 9.60297C15.6135 10.3176 16.0601 11.5682 15.1668 11.9256C11.5043 13.5335 7.75244 15.2308 4.08991 16.8387C3.19661 17.2854 2.12465 17.6427 1.14202 17.9107C0.60604 17.732 0.15939 17.196 0.24872 16.66C0.60604 15.9454 1.14202 15.3201 1.76733 14.8734C3.37527 13.2655 4.98321 11.5682 6.59115 10.0496ZM17.2214 9.69231C19.7227 9.60298 22.1346 9.69231 24.6358 9.69231C25.1718 9.69231 25.7971 9.60297 26.1544 10.0496C27.941 11.7469 29.6383 13.5335 31.4249 15.2308C31.9609 15.6774 32.3182 16.2134 32.6755 16.8387C32.7649 17.464 32.3182 18 31.6929 18C31.4249 18 31.2462 18 31.0676 17.8213C26.6011 16.0347 22.2239 13.9802 17.8467 12.0149C16.6854 11.6576 17.1321 10.4963 17.2214 9.69231Z" fill="#C2CDE7"/>
</svg>